<svg xmlns="http://www.w3.org/2000/svg" viewBox="0 0 800 826"><g fill="none" fill-rule="evenodd"><path d="M255 50c26.444-7.333 46.111-11 59-11 12.889 0 26.222 3.333 40 10 33.333 21.333 55.667 35.333 67 42 11.333 6.667 23 18.333 35 35l79 164h16l13 28 41-9 32-19c-6-12-8.333-23.333-7-34 2-16 41-47 40-42s17 16 21 19c2.667 2 1.667 14-3 36l9 5c11.333-3.333 20.667-3.333 28 0 11 5 8 2 19 21s-21 15-21 15l-11 18h-14c-1.73 12.688-6.064 19.688-13 21-6.936 1.312-15.603-4.354-26-17-9.338 13.977-16.671 24.31-22 31-5.329 6.69-13.662 16.023-25 28-34 17.333-54.333 29-61 35-6.667 6-10.667 11.333-12 16l11 110c1.333 33.333.333 58.667-3 76-5 26-12 47-12 53 0 4 2.333 11.333 7 22-36-24-57-34.667-63-32-9 4-10 6-14 16-2.667 6.667-.667 15 6 25l-24 11c-20.667 15.333-50 25.333-88 30-38 4.667-78.667-9-122-41l-34-36 4-51 21-40c0-17.333-2.333-27.333-7-30-7-4-11-8-21-3-6.667 3.333-15 11.333-25 24l-14-60 30 16c-1.569-8.262-1.236-16.262 1-24 2.236-7.738 6.236-14.738 12-21l-20-18c-5.416-7.817-9.083-14.15-11-19-2.876-7.274-4.975 2.646-6-24-.683-17.764.317-35.764 3-54l58-32c21.67-27.538 27.67-57.538 18-90-14.504-48.693-33.163-75.237-39-94-3.891-12.508-4.891-26.175-3-41 5.734-11.89 11.734-21.89 18-30s17.266-19.776 33-35z" fill="#2B363C"/><path d="M530 278c10.667-1.333 18-.667 22 2 6 4 13 19 14 21 .504 1.007 8.814.883 17 0 8.067-.87 16.007-2.496 17-2 2 1 13 38 12 82-.667 29.333-3.667 46.333-9 51-20.664-8.167-36.33-10.5-47-7-16.004 5.251-17 11-17 28 0 11.333 14 36.333 42 75-46.013 40-96.346 63.666-151 71-54.654 7.334-108.654-2.333-162-29 .667-16 3.333-23.667 8-23 7 1 23-1 24-6 .667-3.333 1.333-8.667 2-16 9.911-5.758 15.911-12.091 18-19 3.133-10.363-17-38-29-44s-28.643 3.582-35-5c-3.623-4.89-3.766-16.549-3.774-27.708v-1.889c-.003-7.735-.032-15.027-1.226-19.403-2-7.333-29-15-81-23-2.667 8.663-4 17.33-4 26 0 13.005 5 25 4 28s-20.328-10.958-31-25c-7.114-9.361-9.448-17.694-7-25-2.108-15.562 1.892-28.23 12-38 15.162-14.656 44-14 48-20 1.4-2.1 1.335-5.295 1.173-8.736l-.029-.592c-.015-.297-.03-.595-.043-.895l-.027-.6c-.244-5.807-.008-11.822 6.926-14.177 7.97-2.707 22.97-.374 45 7l-19 27c16.661 10.97 31.994 20.303 46 28 8.97 4.93 21.082 11.214 36.337 18.853l1.617.81c8.145 4.07 17.16 8.516 27.046 13.337l110 28 38-24 56-97zM179 461c0 .327 2 2.494 6.003 6.502l.5.5c4.165 4.159 10.33 10.158 18.497 17.998-5.665 8.825-8.998 15.158-10 19-3.895 14.93-2.538 24.273-2.11 26.489l.03.144c.04.2.068.318.077.355L192 532s-.085-.059-.253-.17l-.141-.094c-2.347-1.552-15.013-9.665-33.606-16.736-7.074-2.69-20.408-6.024-40-10 20.89-14.448 34.224-23.781 40-28 19.486-14.233 21-16.461 21-16z" fill="#A62339"/><path d="M352.575 475.258c2.1 1.554 1.555 4.664 1.71 6.997.23 8.917-.433 17.75-1.267 26.56.002.605.01 1.21.024 1.817a7.712 7.712 0 00-.023.607v.246c.005.725.049 1.681.08 2.715l.01.368.008.373.007.376c.041 2.969-.158 6.118-1.692 6.163-.403.702-1.055 1.136-2.122.969-1.96-.373-2.071-3.21-1.982-6.006l.019-.508c.065-1.687.168-3.303-.058-4.293-.393-9.349-.125-18.643.94-27.882-.2.252-.408.5-.616.748l-1.193 1.402a29.024 29.024 0 00-1.697 2.176l.078-.078c-.908 1.175-1.596 2.46-2.34 3.704a86.892 86.892 0 01-.053 2.707l-.027.706c-.17 4.224-.56 8.236-.546 9.925v.094l-.092.966c-.396 4.306-.578 8.612-.363 12.918.622 3.11.078 11.506-4.742 7.62-1.224-2.997-1.074-6.292-.792-9.623l.092-1.053c.217-2.458.435-4.92.155-7.284-.284-5.289-.693-13.738.385-20.33l.937-1.128c-2.397 2.916-4.902 5.831-7.38 8.702l-.262.305c.718 8.32.072 16.73.8 25.046-.259 1.178-.104 2.741.082 4.374l.057.492.056.494c.384 3.462.569 6.952-2.993 7.546-1.982-.213-2.707-1.504-2.939-3.135-.31-.375-.498-.884-.482-1.53.077-2.566.155-5.054 0-7.62v.312c-.772-8.553-.586-17.105.293-25.613a84.28 84.28 0 01.46-4.928c-3.07 6.767-3.568 1.205-.996-2.682l.038-.059-.028.007c.577-1.083 1.423-1.965 1.727-3.206l.06-.293c2.342-2.014 2.596.346 2.564 2.948.102.26.206.547.313.862.276 1.338.495 2.68.67 4.025.5-.77 1.066-1.579 1.64-2.37l.3-.41c1.645-2.243 3.278-4.26 3.61-4.744 1.242-1.513 2.233-2.471 3.022-2.99.102-.23.209-.45.32-.664 2.434-1.158 3.507 1.286 3.908 4.995 2.011-2.845 5.046-5.093 6.602-8.115l.048-.345-.005-.084c-.079-2.063 1.372-4.63 3.675-3.292zm23.013-8.863c2.877 2.876 5.364 28.454-.156 27.832a1.583 1.583 0 01-.82-.411c-.526.52-.987 1.043-1.2 1.578-2.256 2.41-6.61 12.983-9.408 12.283-.576-.413-1.1-1.11-1.574-2.01-.07-.028-.141-.057-.214-.089-3.632-4.884-4.39-12.14-3.571-18.555l-.006-.104c.03-.193.067-.417.112-.665.19-1.278.441-2.516.744-3.688.263-2.15 1.962-3.805 3.35-3.888.216-.264.44-.532.665-.8l.306-.36c1.326-1.555 2.645-3.022 2.831-3.582.15-.197.336-.467.552-.79l.192-.288c1.99-3.007 6.034-9.438 8.197-6.463zm9.485-9.408c.77 3.465.645 7.047.644 10.58.96-1.414 2.089-3.498 3.699-2.274.862 1.197-1.433 3.692-3.613 5.941.014.227.03.454.047.68v-.31c.363 7.183.184 14.3-.22 21.474l-.09 1.538c-.13 1.658 1.112 3.126 2.427 4.563l.343.374c1.718 1.868 3.364 3.707 2.05 5.87-.778.777-2.177.777-2.877-.078-7.837-6.893-6.87-17.173-6.39-26.73l.04-.818c.02-.407.037-.814.053-1.218.225-1.542.051-5.21.012-9.037l-.006-.743c-.027-5.202.255-10.465 2.17-10.9 7.23-12.44 10.263-10.651 1.71 1.088zm-12.284 13.217l-.634.634-.221.221-.012.012-.066.066-.046.046-.032.032c-.077 0-.077.078-.077.078l.046-.047.023-.024-.03.031c-.04.043-.04.055-.04.117l-.065.066-.012.012-.039.039-.039.039-.636.747-1.272 1.496c-1.697 1.994-3.407 3.974-5.224 5.847l-.028.027c.202.427.323 1.006.326 1.76.03.602-.034 1.211-.143 1.823-.49 5.585-.472 11.17.602 16.755.171.407.313.886.412 1.392l-.412.551c.809-1.057 1.567-2.164 2.356-3.281l.598-.84c0-.058.044-.072.066-.109l.012-.046c.058-.058.117-.116.142-.175l.014-.058.109-.11.046-.046c.435-.56.87-1.12 1.346-1.639l.29-.305.047-.043c1.056-1.04 2.212-3.021 3.509-4.375-.053-1.113.03-2.418.158-3.775l.062-.63c.322-3.163.807-6.487.316-8.263l-.052-.173a27.366 27.366 0 00-1.4-7.852zm80.078-35.452l.078-.078.077-.077c-2.099 1.788-4.12 3.731-6.22 5.597-.503 6.683-1.819 13.25-3.327 19.788 2.67-2.745 6.24-5.684 7.157-6.154l.058-.028v-.078c2.38-3.158 3.76 1.67 4.61 6.268l.084.458.08.455.077.45c.375 2.235.63 4.206.824 4.886v.156c3.732 3.731-5.52 31.098-12.594 25.422-1.427-1.702-.538-3.268.634-4.78l.246-.311.25-.31c.669-.826 1.338-1.639 1.668-2.451 2.877-5.364 3.344-11.817 6.376-17.026-.39-3.577-1.167-7.075-2.177-10.574-3.254 1.793-5.544 4.835-8.178 7.38-1.751 7.334-3.594 14.655-4.65 22.086.173.751 1.045 2.33 1.797 3.942l.153.334c1.185 2.612 1.904 5.166-1.328 4.276-1.944-1.944-2.877-4.665-4.199-6.997-1.088-.389-1.788-1.633-1.865-2.799.155-5.364.933-10.807 1.788-16.171 1.088-9.407 3.654-18.426 6.297-27.522.302-2.714 2.87-2.87 4.584-4.081l.03-.023-.018.023a.08.08 0 00-.009.038c2.1-1.632 3.965-3.965 6.608-4.742 1.633-.311 2.488 1.71 1.089 2.643zm-39.728 12.673c4.12 8.007 1.788 18.58.7 27.366-1.28 2.88-1.243 11.447-3.66 14.432.405.95.424 1.924-.305 2.905-.933.7-2.177.7-3.032 0-3.421-2.565-6.065-5.986-9.174-8.785l.198.198-.083-.081a2.921 2.921 0 00-.426-.35l.077.078c-3.265-2.566-4.431-3.421-3.887-7.853 1.01-4.431.078-10.573 3.499-13.838 2.881-2.54 10.063-13.616 14.81-13.458.193-.456.572-.738 1.283-.614zm95.394 9.251c-2.41 7.697-5.443 15.083-7.853 22.78-.152 2.287-1.95 5.098-4.146 2.858l-.13-.137a16.548 16.548 0 00-1.943-1.244h.077c-.155-.078-.233-.156-.388-.233-2.8 2.332-6.686 3.731-8.475 7.075-.512.878-1.162 1.962-2.209 2.281l-.2.05c-.778.156-1.556-.077-2.178-.699-1.756-4.43 3.766-15.389 4.992-20.785l.044-.205.108-.3.52-1.346.181-.508-.014.054c1.011-2.255 1.478-5.21 3.654-6.609 3.965-2.254 16.405-11.195 17.96-3.032zm20.291 7.075v.855c2.076 12.612-.487 7.577-8.669 17.096l-.272.32c-.543.396-1.164 1.203-1.83 2.086l-.223.296-.227.3c-1.708 2.251-3.642 4.518-5.26 1.593.155-4.353.543-9.485 2.487-13.294 3.654-1.089 1.01 5.675 1.322 7.619 2.073-2.211 4.269-4.423 6.588-6.47l.799-.695-.002.012c.856-.622 1.633-1.321 2.488-1.943-.233-3.654-1.555-7.697-.31-11.196 2.41-2.099 3.42 1.4 3.11 3.421zm-48.59-11.973c1.476 3.421 3.342 6.764 5.053 10.03.233 1.865-1.866 3.42-3.577 2.487-3.198 1.333-6.27 2.92-9.33 4.543l-2.296 1.22a210.047 210.047 0 01-4.622 2.4c-.7 2.722-.545 5.52-.39 8.32.903-.025 1.974-.37 3.076-.73l.415-.136.416-.132c2.15-.674 4.29-1.112 5.423.92.467 1.166-.155 2.565-1.321 2.954-4.043 1.166-8.63 4.12-12.673 3.032-5.442-7.852-.933-23.634 4.432-30.943 5.053-.077 13.216-6.452 15.393-3.965zm-68.374 2.082l-.135.147c-1.046 1.138-2.38 2.272-3.757 3.403l-.553.452-.276.226-.552.452c-2.295 1.88-4.475 3.75-5.394 5.61l-.105.223c-.777 4.12-1.554 8.63-1.71 12.906 2.255 1.944 4.51 3.965 6.375 6.22l-.078-.078c.063.062.125.174.227.256l.03.02.058.104c.228.39.537.793.888 1.205.217-1.137.541-2.36.888-3.565l.164-.564c.742-2.53 1.526-4.91 1.555-6.164l-.008.048-.014.034.172-.695a80.74 80.74 0 002.225-20.24zm22.048-4.068l-.089.12c-1.466 1.466-3.872 1.417-5.89 2.165a.338.338 0 00-.018.012l-.027.005a5.8 5.8 0 00-1.217.617c-.75.167-1.49.611-2.227 1.092l-.442.291c-.348.23-.697.459-1.046.658 1.532 3.13 2.812 6.416 3.248 9.854.233 2.644 1.322 6.22-.777 8.32-.622 1.01-.95 2.651-1.273 4.379l-.097.52c-.616 3.305-1.315 6.726-4.072 6.529-2.6-.65-2.242-2.617-1.573-4.62l.114-.335.058-.167.176-.498c.058-.165.116-.329.17-.49l.107-.321c.153-.477.276-.931.326-1.344 1.528-5.408.478-11.216-.628-16.886l-.215-1.096c-.249-1.276-.493-2.543-.702-3.795l-.088-.536c0-.058 0-.116-.033-.175l-.045-.058c-.855-2.177 1.089-5.209 3.266-3.188.287.527.574 1.059.858 1.595.926-.68 2.183-1.288 3.464-1.85l.493-.215c1.973-.848 3.905-1.594 4.67-2.328 1.144-1.984 4.985-.373 3.51 1.745zm71.903 8.517c-.31 0-.544.078-.855.078-12.983 2.254-10.884 11.817-15.393 21.535 2.72-2.332 4.587-3.11 7.852-1.01 2.799-6.842 5.83-13.606 8.396-20.603zm16.871.233c.3 1.427-1.211 1.476-2.225 1.407l-.107-.007c-.3.036-.6.066-.902.094l-.905.082c-1.359.123-2.708.272-3.946.757-1.011 4.975-2.566 9.796-3.654 14.771 1.088 1.944-1.167 4.354-3.188 3.343-2.113-1.207-1.329-3.163-.49-5.13l.152-.358c.404-.954.78-1.899.805-2.753 1.865-3.654 1.166-11.35 4.898-13.139 2.332-.155 8.474-1.4 9.562.933zm-45.87-2.565c-.583.175-1.166.35-1.716.524l-.325.105-.491.192c-.862.34-1.77.708-2.677.967-.855.31-1.71.544-2.643.777-.7 3.81-1.632 7.542-2.72 11.273 4.43-2.565 8.629-5.675 13.371-7.696-1.166-1.944-2.177-3.965-2.799-6.142zm48.98 1.244c-3.452-1.305 2.03-16.01 1.8-20.207l-.003-.044.069-.876c.052-.65.104-1.29.155-1.964v.156c5.443-9.485 2.1 24.412-2.021 22.935zm-126.884-17.905l.004.179c-.148.96-.998 1.99-2.015 2.157l-.162.02a1.83 1.83 0 01-1.633-.622c-2.528-3.218 3.627-5.681 3.806-1.734zm8.711-2.853c-1.166.622-2.643-.156-2.799-1.478-1.01-5.908 7.775-1.788 2.799 1.478z" fill="#FFF" fill-rule="nonzero"/><path d="M612 696c-10 30-29.036 24.99-21 27 4.018 1.005 13.905-3.673 23.969-8.763l1.208-.613c9.666-4.91 19.286-10.005 23.823-10.624 9.453-1.289 15.175.052 17 11 1.825 10.948-5 24-11 25-4 .667-14.667 6.667-32 18 14.667.667 25.333 2.333 32 5 10 4 4.809 25.683-16 29-10.188 1.624-16.153-.739-22.287-3.105l-.784-.302c-6.156-2.359-12.669-4.551-23.929-2.593-23 4-49 34-69 36s-26.822 6.05-45-2-19.59-11.969-25-30 0-26 4-39c2.667-8.667 3.333-18.333 2-29l19-9c-6-24.667-3.333-38 8-40s22.333 1.667 33 11l35 20c26-28 41.333-42.333 46-43 7-1 31 6 21 36zM142 519c15.333 4 25.667 23.667 31 59 14-22.667 26.333-32 37-28 16 6 19 26 17 38-.9 5.4-5.647 13.23-10.689 20.847l-.673 1.015-.338.505-.675 1.008C209 619.75 203.5 627.5 203 631c-1 7 5 25-3 53-3.628 12.697-13.26 27.995-32 41-1.068.741-2.127 1.48-3.192 2.207l-.8.544c-7.48 5.058-15.432 9.552-29.008 11.249-8.321 1.04-21.908 1.066-35-10-12.08-10.211-23.761-31.002-30-43-13-25-58.798-41.947-66-55-7.202-13.053 8-34 21-30s37 16 39 15 5-14 5-16-30-27-28-41 1-20 14-23c8.667-2 19.667 2.667 33 14 7.517 10.68 13.517 17.68 18 21 4.483 3.32 7.483 2.987 9-1l2-36c1.333-14 9.667-19 25-15zM516 94c12.667 18 17 29.667 13 35-4 5.333-10.667 13-20 23l14 112 10 22 7 19c-.954 14.985-9.62 34.319-26 58-24.57 35.522-39 60-57 62s-15.246 9.14-58-2c-28.503-7.427-56.503-18.76-84-34l11-22 27-37c-3.333-63.333-10.333-102-21-116-16-21-39.034-39.422-44-54-3.31-9.718 2.69-20.718 18-33 25.977 7.331 46.977 11.665 63 13 5.047.42 10.356.93 15.733 1.396l1.538.132 1.54.13 1.543.125c18.77 1.504 37.696 2.057 48.646-3.783 10-5.333 36-20 78-44z" fill="#4B5763"/><path d="M405 170c27-1 30 9 50 6s26-23 39-25 21.041 4.22 24 8c1.972 2.52-.36 6.854-7 13 13.333 9.333 23 22.333 29 39 9 25-28 53-22 72 4 12.667 5.333 22.333 4 29-4.066 13.712-7.733 23.378-11 29-13.882 23.885-19 32-42 45s-31 4-37 0-39-60-37-125c1.333-43.333 1.333-63 0-59-10.667-8-16-13.333-16-16 0-4-1-15 26-16z" fill="#A2A6C1"/><path d="M466 289l10 60-36-19 26-41zm22-19l15 3 5 32-17 17-3-52zm-28-44l16 46-29 11-20-45 33-12zm58-17l3 23v10l-1 9h-18l-10-29 26-13z" fill="#FFF"/><g fill="#040404" fill-rule="nonzero"><path d="M465.695 367.114c-3.81-.156-7.697-.778-11.273-2.1.078 0 .155.078.233.078-30.554-7.308-36.774-63.362-39.028-89.873-1.166-29-4.043-42.76 26.666-54.578-.077 0-.155.078-.233.078 5.753-2.876 11.662-5.364 17.804-6.997h-.078c.078 0 .078-.078.156-.078 17.648-7.075 37.473-10.495 56.287-7.152-.077 0-.155 0-.233-.078 2.1.389 4.043 1.088 5.831 2.177-.078 0-.155-.078-.155-.078 4.742 3.343 5.053 1.944 4.198 7.93v-.233c-.078 4.043-.156 8.008-2.022 11.74 0-.078.078-.156.078-.156-.777 1.322-.7 4.198-2.643 4.276 1.01 5.053 2.565 25.19-6.997 20.136-1.011 4.354-3.732 8.163-4.12 12.673v0c-.856 3.887-1.167 7.852-1.478 11.817v-.078V276.774c-.389 11.584.933 23.168-.233 34.752v-.233c-.156 19.67-9.796 41.127-26.822 51.7.077-.078.155-.078.233-.078-5.054 2.333-10.496 4.432-16.171 4.199zm-5.753-31.176c3.032.389 5.986-.7 8.863-1.4-.311-3.654-.39-7.308-.622-10.962-2.721-37.162-12.129-9.485-20.992 6.22 1.011.855 2.022 1.633 2.877 2.566l-.078-.078c.467.466 1.089.7 1.633 1.01 0 0 .078 0 .078.078 0 0-.078 0-.078-.078 2.255 1.089 4.665 1.866 7.075 2.41h-.156c.544.078 1.011.156 1.4.234zm34.519-28.688c.155.622.31 1.166.466 1.71 4.198-.389 7.386-3.265 7.775-7.541v-.078c.31-1.71.7-3.498.777-5.287.7-4.198-.389-7.774-2.876-11.195 0 .078.077.078.077.156-4.353-7.62-7.852-5.054-8.552 2.565v-.078c-.155 2.488 0 5.054.078 7.542v-.078V295.121c.156 3.499 1.088 6.842 1.788 10.185.156.7.311 1.322.467 1.944zm-38.718-41.594c5.287 1.944 3.421-6.142 3.732-9.252v.234c0-.467-.078-.856-.078-1.322v.233c-.077-.855-.077-1.71-.155-2.566-.156-2.02-.389-3.965-.777-5.908 0-.078 0-.156-.078-.233v-.078c0-.078-.078-.233-.078-.311 0 .078 0 .155.078.233-1.322-11.74-5.131-15.938-15.238-7.308-2.488 3.11 8.007 22.78 11.35 25.656l-.077-.078c.466.156.933.467 1.321.7zm49.291-44.47c-1.166.777-2.1 1.788-2.954 2.798.466 4.276 11.74 33.975 17.026 25.268v.077c1.788-6.841.544-14.071-.778-20.835v-.078.078c-1.166-7.464-6.141-11.973-13.294-7.308.078-.078.078-.078 0 0 .078-.078.078-.078 0 0 .078 0 .078 0 0 0 .078 0 .078 0 0 0 .078 0 .078 0 0 0 .078 0 0 0 0 0zM412.05 192.187c-2.41-.311-4.82-.933-7.23-1.089h.078c-.233 0-.467 0-.622-.078h.155c-15.47-1.943-9.407-8.318 2.41-7.696 3.421-.467 16.794 2.176 10.885 7.074h-.078c-.078 0-.155.078-.155.078h.077c-.233.078-.466.233-.7.311.078 1.555-3.809 1.555-4.82 1.4zm1.167-1.866c.933-.078 2.021-.622 2.954-.389.078 0 .078-.078.156-.078h-.078c.389-.233.855-.389 1.088-.777-.078-.156-.155-.311-.31-.467 0 .078.077.078.077.156-1.71-1.944-4.665-1.944-6.997-2.721h.155a23.589 23.589 0 00-3.265-.467c-.389 0-.7-.078-1.088-.078h-.311.155c-3.11-.155-6.686-.621-9.33 1.244.39.39.778.7 1.322.778 0 0-.077 0-.077-.078 4.198 1.477 8.707 2.1 13.139 2.488h-.156c1.01.233 1.788.311 2.566.389zM490.573 177.96c-4.198-.856-1.399-5.598.311-7.698 1.866-2.643 4.354-5.053 7.23-6.53 0 0-.077 0-.077.078.078 0 .078-.078.155-.078h-.077c2.177-2.488 9.174-1.71 6.22 2.41.777 1.477-1.322 2.643-2.178 3.576h.078l-.078.078c-3.654 2.721-6.452 8.163-11.584 8.163zm.933-2.178c4.199-1.01 7.775-4.587 10.03-8.163l.077-.078c.544-.933 1.322-1.788 1.633-2.799-5.131.856-8.863 5.987-12.128 9.719 0-.078.077-.078.077-.156-.466.622-.855 1.71.311 1.477zM243.188 36.152c-.078.466-.156.933-.545 1.244.234-.467.39-.856.545-1.244zM301.341 415.55c-.078-.156-.078-.234-.155-.39v.078c-.078-.155-.078-.233-.156-.31-1.088-1.323-2.488-2.411-3.81-3.577l.078.078c-3.965-3.11-8.007-6.22-12.206-9.019l.078.078c-6.997-4.12-14.15-8.008-21.69-11.195.077.077.155.077.232.077-3.265-1.477-6.375-3.265-9.64-4.742.078 0 .078.078.155.078-.233-.156-.544-.234-.777-.39.078 0 .078 0 .155.079a63.044 63.044 0 00-4.898-1.866h.078c-.078 0-.155-.078-.233-.078h.078c-12.595-3.965-25.112-7.775-37.862-11.04-11.662-2.954-23.635-4.976-34.208-11.118-3.732-2.099-.389-5.83 2.72-6.064 6.842-1.632 13.917.467 20.681 1.866 3.42 1.555 18.659 2.41 17.648 6.764.156 5.054-28.843-6.453-35.53-4.276.312.156.7.311 1.011.467h-.077l.466.233c-.078 0-.155-.078-.233-.078 3.654 1.71 7.386 3.343 11.195 4.665-.078 0-.155-.078-.233-.078 12.284 3.265 24.645 6.064 36.929 9.33-.078 0-.155-.078-.233-.078 2.799.855 5.52 1.788 8.319 2.643.233.078.544.156.777.233 5.364 1.71 10.962 2.8 16.171 5.21-.078 0-.155-.078-.233-.078 2.954 1.321 5.83 2.876 8.707 4.276h-.077c1.632.7 3.265 1.399 4.82 2.099.078 0 .078 0 .155.077 9.796 4.51 18.97 10.418 26.745 17.96 1.632 2.332 7.619 5.753 5.675 8.707-.31-.078-.622-.31-.622-.622zM562.566 360.194c-2.255-21.38.933-45.325-11.429-64.295-.389-1.866 2.1-1.866 3.11-.855 6.53 5.286 7.541 14.46 9.563 22.157v-.078c2.332 12.284.544 24.957 1.166 37.396 1.477-4.665 2.41-9.407 3.343-14.227v.077c.466-2.565.933-5.13 1.477-7.774v.077c.078-.233.078-.466.155-.7v.079c.156-.7.234-1.4.39-2.1v.156c0-.078 0-.156.077-.233v.155c1.01-2.332.31-8.785 3.11-9.252 3.032.467-2.333 16.793-2.255 20.137v-.078c-.233 1.244-.466 2.488-.777 3.81-1.167 3.031-2.877 19.747-7.93 15.548zM487.852 825.811c-16.326-2.02-35.063-6.53-42.526-22.934-8.552-19.204-6.92-43.227 4.898-60.72 1.243.234 2.332-.7 3.265-1.477 1.555 2.488-.622 4.276-1.788 6.375-2.41 4.432-3.81 9.252-5.598 13.995-4.12 17.415-2.1 40.272 14.072 51 31.176 17.882 67.794 5.987 94.383-14.616 10.806-8.63 23.557-15.315 37.629-16.326 13.605-1.166 25.889 8.163 39.572 6.53 10.34-1.554 26.433-14.538 12.983-23.4-9.173-4.121-19.902-3.11-29.465-6.22-5.986 13.138-9.018-.778 2.1-9.408 4.586-3.887 10.806-4.587 16.092-7.152-.077 0-.077 0-.155.077 9.252-4.664 20.214-10.884 21.769-22.157-.156-10.107-11.273-17.026-20.68-13.528-12.984.156-34.053 25.89-43.305 17.493-3.032 2.255-5.52 5.675-8.94 7.23-1.555.078-2.255-1.943-1.089-2.954 3.265-3.032 6.608-6.064 9.874-9.174 7.852-7.075 16.404-14.46 19.203-25.112 5.209-16.17-1.866-38.64-22.158-27.444-16.793 7.775-23.479 27.678-40.194 35.608 2.721 1.321 8.319-.234 8.785 3.654 0 1.244-1.088 2.332-2.41 2.254-8.319 0-16.17-3.187-23.401-6.997-15.083-7.774-26.745-23.168-43.849-26.511-19.28-4.51-21.38 17.57-17.104 31.098 6.22 15.938 21.847 29.932 39.029 32.264.233-.7 1.321-.466 1.321.234 2.022 2.41-2.488 2.72-4.12 2.488-24.801-1.4-46.103-25.423-43.538-50.302-.155.156-.233.311-.388.467.155-1.244.233-2.488.31-3.732l.234.233c.31-2.876 1.088-5.597 2.565-8.085 7.697-16.327 29.388-8.164 41.283-1.4 10.03 3.888 29.932 26.59 39.65 21.07 0 0-.077 0-.077.077.077 0 .155-.078.155-.078s-.078 0-.078.078c17.26-11.74 26.356-33.586 47.503-39.883 9.718-3.577 19.825 4.198 22.78 13.294 2.41 8.785.232 18.426-2.955 26.822-3.499 10.107-13.372 16.171-19.98 23.48 0 .077.077.155.155.233 12.595.855 30.01-22.391 47.89-21.847 8.942-.622 16.716 6.997 18.271 15.394 1.166 8.319-4.665 15.005-9.718 20.913-8.474 9.796-23.013 9.718-32.264 17.96 9.407 2.954 20.291 1.788 28.843 6.997 15.238 10.962-.078 28.066-13.683 30.709-17.648 3.42-34.13-11.429-51.545-3.965-12.206 3.187-21.303 12.284-31.643 18.892-17.881 12.673-39.728 20.214-61.963 18.503z"/><path d="M126.958 740.914c-37.084 1.71-50.534-38.407-64.917-65.384.31 1.01.933 2.72-.389 3.11-6.064-11.118-18.426-15.783-28.532-22.702-8.708-6.686-20.37-9.796-27.367-18.504-14.771-18.658 5.21-47.502 27.91-35.685 9.02 3.032 16.094 10.651 25.423 12.595 2.566-.233 6.22-1.088 6.998-3.887.31-3.888 1.554-8.319-.234-11.895-2.876-4.432-7.93-6.609-11.506-10.34-3.732-3.343-5.675-8.086-8.63-12.129-14.694-16.093-3.42-51.7 21.536-39.339 10.962 3.81 22.002 9.796 28.921 19.436 2.799 4.665 6.375 8.63 10.807 11.74.31-.155.777.156.7.544 1.01.7 2.02 1.4 3.031 2.022 4.743-12.129-2.176-26.823 5.52-38.562-20.835-21.847 14.461-39.184 30.166-49.68 1.088-.7 2.254-1.399 3.343-2.099 7.696-5.13 15.004-10.884 22.624-16.17 1.321-.856 2.487-2.022 3.965-2.644-4.743-6.375-6.842-14.46-8.708-22.08-15.86-6.997-43.926-28.843-38.095-48.28-2.566-14.927 3.032-30.087 11.74-42.06 8.163-6.064 18.27-9.174 27.521-13.216-.078 0-.078.077-.155.077 5.286-2.021 10.65-3.654 16.093-5.13 2.954-.856 6.453-.7 6.764-4.51v.078c2.565-6.22-.622-13.917 2.565-19.748 5.987-5.053 27.29.311 35.452 1.166-.077 0-.155 0-.155-.077.233.077.466.077.7.155 3.965.7 7.852 1.477 11.817 2.177-.156-.466-.389-.933-.544-1.477 2.488-1.633 3.265-5.054 4.82-7.464.155.311.233.622.389.933 4.042-11.584 6.608-25.267.077-36.385-.544-.544-.855-1.477-.077-1.943 4.353-.156 5.597 8.085 6.841 11.35 3.81 23.869-8.474 47.503-22.157 66.317 22.39 14.617 45.792 27.445 69.66 39.573h-.078c12.05 4.898 23.479 11.35 35.374 16.637-.078.467.622.778.933.39 13.061 7.696 27.6 12.672 42.138 16.714 13.139 3.577 25.811 8.708 39.34 10.885 17.414 2.177 36.306 2.099 51.078-8.63 27.444-21.458 41.438-53.644 58.153-83.11 10.34-17.337 14.617-30.398 2.488-48.202-3.11-6.22-6.064-12.828-6.375-19.903-1.088 3.266-2.177 6.53-3.343 9.796 0-.078 0-.078.078-.155-2.177 6.919-3.499 14.15-5.21 21.146-.077.545-.699.856-1.243.778-.544-.078-1.088-.622-.933-1.244 1.633-9.874 3.965-19.514 6.764-29.077 3.81-16.015 14.15-29.699 17.881-45.636v.077c2.333-19.436-14.616-34.052-26.589-46.725-1.088.778-2.099 2.877-3.654 2.488-1.244-3.732 10.962-12.361 8.32-16.793-3.188-3.965-9.486-4.12-13.995-5.986-10.884-4.12-17.337 6.841-25.345 11.973-7.62 4.898-14.927 11.506-24.49 11.661-21.224-.388-44.315-11.273-64.45-.622-15.472 8.008 2.643 16.172 8.629 23.402 1.477 2.254 6.997 4.198 5.209 7.23-2.799 2.177-10.262-8.008-13.295-9.64-7.54-5.365-16.793-13.839-7.074-22.235-.545-.311-1.089-.467-1.633-.778 0 0-.078 0-.078-.078-8.008-4.042-17.182-4.198-25.811-6.142-19.048-5.286-9.407 4.665-18.115 2.722-3.576-2.255-.155-6.687 1.944-8.786 3.576-3.343 8.707-1.943 13.139-1.632 9.33-.078 16.56 5.675 24.8 8.863 2.722 1.01 5.598 2.021 7.775 4.042 13.839-8.63 31.254-5.597 46.57-4.042 9.173.466 18.114 4.587 27.288 3.11 8.785-1.866 15.238-8.941 22.313-13.995 3.188-3.498 5.986-7.852 10.651-9.407 5.131-.855 6.453-6.764 9.718-10.34 3.577-4.976 8.164-9.018 12.906-12.75.855-.622 2.1-.544 2.799.155 2.255 3.421-3.887 5.753-5.598 8.241-4.509 4.12-8.163 8.94-11.817 13.761 2.954.311 5.598 1.477 8.474 1.944-1.244-2.877 2.022-4.665 3.887-6.298 5.287-5.442 11.04-10.806 15.55-16.948.7-10.34-2.722-23.013-10.496-30.165-29.777 11.74-54.577 33.197-84.587 44.548-10.418 2.876-21.458 1.088-32.109.855-16.326-.622-32.653-.777-48.902-2.799-8.707-1.166-17.337-2.643-25.889-4.665-6.53-2.643-13.294-3.498-20.292-2.254.078 0 .156 0 .234-.078-1.011.311-2.022.544-3.11.544-5.131 3.577-7.386 10.03-10.729 15.238-5.52 11.584 8.397 20.68 14.46 28.922 10.807 13.605 23.48 25.656 34.364 39.339 8.319 22.857 12.984 46.958 15.55 71.137 1.32 17.337 6.996 35.763-4.821 50.612 2.721-24.179-2.332-48.124-6.842-71.759-3.731-16.637-5.442-34.286-13.216-49.68-10.962-22.779-35.297-35.762-45.015-59.163 0-.078-.078-.156-.078-.234.778-12.594 8.397-30.01 22.547-31.487 2.254 1.167-1.944 1.71-2.722 2.1-.622.31-1.321.7-1.943 1.088 1.71-.777 3.576-1.01 5.442-1.322 9.874-2.021 19.28 3.188 29.077 3.732 17.881 2.721 35.763 5.442 53.877 6.142 30.088 2.721 35.53 4.51 62.819-9.951-11.507-21.614-32.032-34.986-52.79-46.648-12.828-8.474-63.906-30.01-43.848-49.135 6.142-6.453 14.383-10.34 22.935-12.361.544-.311 1.477-.233 1.244.622.078.544-.622 1.01-.933.388-9.096 2.41-25.5 11.274-24.568 22.08 11.04 20.37 44.16 30.71 63.207 43.615 16.171 9.408 29.855 22.857 39.34 38.95 13.294-9.095 27.133-17.103 41.282-24.8 6.064-2.41 11.273-8.63 17.96-8.63 12.361 5.365 13.372 21.847 14.538 33.586.466 7.93-15.238 19.67-20.758 26.356 1.71.622 3.265 1.322 4.82 2.255 7.464 5.753 2.566 12.05-2.488 17.259 10.03 4.743 20.37 20.758 25.5 30.554 15.161 28.377-22.468 46.88-8.629 74.636 5.053-.7 10.185-.778 15.238-.622h-.155c13.45-1.322 14.616 15.004 21.613 22.779 3.032-.855 6.453.855 9.64.544 6.686 0 13.14-2.254 19.67-3.654 5.598-1.477 7.697 7.62 9.563 11.506 9.64-5.208 18.503-11.661 27.521-17.803-9.64-17.26-9.174-43.304 8.241-55.433 4.976-4.276 24.568-23.79 30.088-22.157 3.81 5.52 7.619 11.506 13.76 14.85 2.255 1.476 5.598 1.01 7.309 3.265 3.11 12.75 2.488 25.656-2.643 38.017 2.72.855 5.286 2.177 7.774 3.576 13.994-13.838 44.47 7.075 49.057 22.857 4.199 13.45-12.905 26.356-24.178 17.104.544 11.818-11.584 23.324-23.402 19.281.311 4.82-.622 9.952-3.965 13.684v.077c-12.517 13.45-25.734 2.255-35.607-7.93-.467-.622-1.089-1.244-1.322-2.021.389-.622-.389-1.477-1.01-.855-6.842-10.496-19.592-28.533-10.03-40.117 2.022-8.474 15.705-9.874 22.857-7.23-.7-3.188-.388-6.453.156-9.64-12.44-4.665-16.016-26.745-11.506-37.863 3.654-1.866 1.088 18.348 5.13 21.924 2.41 7.697 6.765 10.574 14.695 10.652 11.117-1.866 11.74-28.144 9.873-36.93-9.251-.855-16.248-8.785-19.67-16.948-8.085 4.898-15.47 10.651-22.39 17.104-4.51 4.198-10.107 7.541-12.75 13.372-4.354 12.129-3.11 27.6 3.732 38.562 1.943-.933 16.715-15.238 13.605-6.608-13.76 11.35-28.377 21.69-44.16 30.01 5.21 18.347 5.676 37.628 6.454 56.598h-.078c-.622 22.624 0 46.336-8.863 67.56.078.078.155.078.31.156-.077-.078-.232-.078-.31-.155-1.4 3.42-5.131 1.321-6.375-1.089-2.333-5.83-39.961-9.174-45.715-5.364-8.707 13.372-15.937 15.16-9.018 32.109 3.343 16.015 12.44 29.543 21.846 42.604 6.298 9.019 12.44 18.426 20.68 25.812-10.728 9.174-22.312 17.26-33.74 25.422 6.84 25.579.466 59.242-4.666 85.054-3.576 15.627-6.997 31.487-13.527 46.258-2.644-7.152 1.632-13.994 3.11-20.99 3.343-13.062 6.22-26.201 8.707-39.496 3.887-22.235 2.643-44.78 1.4-67.172-12.75 9.64-26.978 16.716-41.594 22.858-11.973 5.442-23.402 12.283-36.463 15.004-66.628 16.793-137.92 6.22-200.272-21.302-3.965 10.729-17.415 7.93-24.101 1.555-5.675-3.42-8.708-11.506-15.86-11.662 9.33 25.578-16.404 44.004-20.836 67.405-2.488 13.917-2.41 28.144-3.81 42.216.078-.155.156-.388.312-.544.077 1.71 1.788 2.332 2.72 3.499-5.441 11.195-9.173 23.4-17.337 33.041-16.015 18.27-38.328 32.11-63.129 31.099zM60.02 671.642c10.652 7.62 15.783 19.359 20.836 30.943 7.308 10.651 14.772 22.546 26.59 28.61 31.02 13.373 67.093-5.753 84.275-32.497 9.952-18.27 7.775-39.34 9.64-59.32 0-26.511 27.6-42.216 24.18-68.26-4.043-18.426-16.871-25.579-33.042-13.995-7.853 8.008-12.984 21.691-25.967 22.469v.078c-11.04.466-16.327-10.263-16.638-19.981.311-9.33 5.598-18.814 1.788-28.066-3.11-8.552-13.838-11.74-21.846-8.708-5.52 3.266-8.94 9.485-11.196 15.239-4.276 10.573 1.633 22.623-2.72 33.197-5.754 6.375-11.274 2.876-16.405-2.177-8.396-8.785-10.729-17.96-23.013-23.712-7.308-3.421-16.482-8.397-24.412-4.976-8.94 5.986-11.117 19.125-6.297 28.377 3.343 4.898 6.297 10.185 9.951 14.85 6.764 6.608 18.348 11.428 15.16 22.934.545 7.386-6.141 12.206-13.138 11.196-10.418-2.722-18.348-11.274-28.921-13.917-15.86-6.841-30.554 15.005-22.391 28.533 4.431 8.007 13.45 11.35 20.913 15.86 9.408 6.453 19.592 11.973 28.222 19.514.389.31.777.622 1.166.855 0 0-.078 0-.078-.078 1.478 1.011 2.721 2.41 3.732 3.888-.155-.311-.389-.7-.544-1.011l.155.155zM281.127 549.35c-12.439-.933-11.04 10.651-10.884 19.592 65.54 30.087 142.119 39.028 211.312 16.482 15.083-6.997 30.787-12.906 45.636-20.525 18.115-10.651 34.986-23.401 51.701-36.074-11.973-13.061-21.458-28.221-31.098-42.993-6.142-10.729-9.64-23.09-12.206-35.063-16.171 19.825-33.12 39.028-48.358 59.553-9.096 12.672-21.535 24.723-25.578 40.116h.389c3.887-1.477 6.841-4.664 10.029-7.152l-.078.077c2.022-1.01 33.742-30.553 28.844-19.514-10.185 8.164-20.37 16.482-30.088 25.19-3.42 3.81-13.372 9.252-13.06.155 1.787-10.65 9.329-19.358 15.082-28.221 0-.078.077-.078.077-.078.467-.622.856-1.244 1.322-1.944 16.949-23.712 35.607-46.18 53.878-68.882 5.209-6.142 9.873-12.672 14.616-19.125 6.453-8.552 13.683-17.027 15.782-27.833 3.499-14.46.078-30.71 10.651-42.682.389-.545.855-1.244 1.633-1.089.544.156.933 1.01.155 1.089a9.96 9.96 0 00-.855 1.555s0-.078.078-.078c-9.952 19.047.155 39.339-13.761 60.175 12.361-2.177 25.19.466 37.395 2.799 3.421.777 6.687 1.788 9.874 3.187 1.322-4.043 2.255-8.163 3.11-12.284 0-.155.078-.31.078-.466.077-.389.155-.778.233-1.089 2.721-15.16 2.488-30.709 2.566-46.025 0-1.166-.078-2.41-.078-3.576-.933-17.57-2.022-35.297-6.764-52.323-1.244-4.12-2.799-8.24-4.976-11.973-9.485 2.255-19.358 5.754-29.077 2.722-.932 1.554-2.954.777-3.498-.7-15.782-23.713-4.432-19.903-33.742-23.09.778 1.477 1.555 2.954 2.177 4.43 7.697.467 13.994 8.553 12.284 16.094-3.965 7.93-6.453 16.404-9.407 24.645-11.895 21.925-22.546 44.86-37.162 65.229-28.688 43.537-60.486 47.891-107.989 32.264-13.139-3.965-26.355-7.386-39.106-12.44-9.096-3.264-16.948-9.095-26.122-12.36-21.38-10.496-43.693-19.36-63.83-32.187-.232-.156-.466-.311-.777-.467-.233-.077-.388-.233-.621-.388-11.274-5.831-21.847-12.595-32.42-19.514-1.866 2.41-3.732 4.742-5.52 7.152 1.866-2.41 3.732-4.742 5.52-7.152-8.708-5.21-26.667-18.348-27.367-28.844 1.788-3.188 6.22-2.566 9.33-3.11 10.184-1.555 19.903 1.166 29.776 3.343.622-1.166 1.244-2.332 1.788-3.576-13.216-2.255-26.433-4.12-39.805-4.198-4.976-.545-4.665 2.099-4.276 5.986 0 6.53.233 16.016-6.298 19.514-15.704 4.276-31.331 10.185-45.17 18.892-.855.856-1.4 1.866-2.021 2.877-6.297 9.407-10.651 20.913-9.64 32.342 12.905-6.608 28.221-4.898 42.215-4.043-.155 0-.233 0-.388-.078 3.887.39 7.852.7 11.817 1.089 33.586 6.841 72.148 14.072 95.005 42.06 2.41 3.421 19.358 24.49 15.005 26.511-4.199 2.644-8.32-9.251-11.04-11.817-8.552-12.517-19.592-24.023-33.664-30.165.622 14.85-3.188 32.886 6.142 45.559 6.997 3.731 15.86.777 23.479 1.866 7.541-.39 13.294 3.965 18.892 8.396 9.407 6.608 15.938 16.327 18.426 27.522 5.908 15.316-4.276 26.433-17.726 32.342 1.166 17.026-4.198 24.257-21.847 22.313zm-41.438 5.909c-2.566 2.02-5.364 3.81-8.086 5.753 6.298.155 9.252 7.075 14.072 10.184 5.054 4.199 15.55 10.03 19.204 1.477 1.088-1.554 1.632-3.343 1.71-5.208.389-3.888.466-14.383 3.887-16.094 6.686-15.704 32.187 4.976 27.989-20.525v-1.243c-.778-11.429-4.354-22.935-8.475-33.664-1.71-4.276-6.608-6.53-8.085-10.73 1.632-6.685 15.238 9.952 14.927 13.684.31-.155.544-.31.855-.466.078-.078.156-.078.311-.156.078 0 .156-.078.233-.078.078 0 .156-.077.156-.077 2.565-1.167 10.729-5.443 9.33.622-2.566 2.177-6.61 2.41-9.719 3.731 1.866 6.22 2.721 12.595 4.12 18.893 12.673-5.987 19.903-13.761 13.995-28.067 0 .078.077.156.077.234-3.654-13.761-15.86-24.879-28.61-30.166-9.33-2.176-19.358 1.167-28.3-2.332a80.267 80.267 0 001.789 4.587c-1.088.544-1.555 1.866-2.721 2.41-.855-.544-1.788-1.01-2.799-1.166-7.697-17.881-12.44-38.484-6.53-57.61-10.885-5.597-22.78-8.707-34.675-11.583-14.305-4.51-28.844-7.308-43.77-8.397-1.789 19.359-1.4 39.262 3.498 58.154 6.608 14.46 18.426 26.355 31.02 35.763 2.022-1.167 4.199-2.955 6.609-2.722 1.4 1.789-6.142 8.397-7.308 10.73-13.295 15.782-11.818 39.338-2.955 57.064 10.807-4.042 20.292 1.866 25.112 11.585 3.032-2.177 6.297-4.121 9.33-6.298a148.69 148.69 0 003.809 1.71zm-67.483-27.911c-.855 14.305 1.244 28.61 4.587 42.527 7.075-6.375 10.418-16.25 20.058-19.514-9.096-18.115-5.053-16.716-24.567-25.734 0 .933-.078 1.788-.078 2.72zm-42.604-22.624c15.315 1.4 29.232 8.474 43.148 14.383 5.287 2.41 10.418 5.053 15.472 7.852-1.633-14.305 4.198-28.921 12.905-40.116-8.94-6.298-16.637-14.383-23.012-23.246-5.676 7.852-13.528 13.06-22.08 17.337-12.05 7.075-24.568 13.839-34.674 23.635 2.72-.39 5.442-.156 8.24.155zm24.412-115.84c-6.531.31-13.761 1.01-19.126 5.208-.155 1.4.156 3.11-1.166 3.965 4.587 16.327 19.592 25.5 32.264 35.141-2.332-14.538-3.887-30.01 1.322-44.16-4.431-.155-8.863-.232-13.294-.155zm511.176-51.935c17.57 20.759 38.25 4.043 26.977-18.814-6.92-10.806-15.704-26.822-30.398-25.967-4.898-.544-8.475 6.142-13.062 3.965-.7 14.616 7.464 28.455 15.705 39.884.233.388.467.622.778.932zm-447.114-20.99c-4.276.232-8.63.232-12.828 1.32 4.898 8.164 12.128 15.006 19.98 20.292 4.665-5.908 9.408-11.74 13.062-18.347-6.764-.856-13.295-3.654-20.214-3.266zm481.788 8.94c13.139 5.753 18.115-9.174 17.026-19.747-1.866-8.863-7.852-16.56-13.294-23.635-4.12-4.51-10.107-6.53-15.316-9.485-3.343 4.354-8.708 7.153-14.305 5.831-.855 3.499-1.322 7.308.077 10.651 10.496 9.563 20.37 22.235 24.335 36.074.466-.078 1.01 0 1.477.311zm5.131-52.323c-1.322.156-2.72.389-3.81 1.166 8.164 5.21 12.673 14.383 17.416 22.547 1.399 2.643 2.798 5.286 3.498 8.085 3.265 1.244 5.598 4.587 9.485 4.665 4.976.544 9.951-4.276 10.651-9.019-.855-17.181-21.38-28.532-37.24-27.444zm-170.107 13.917c3.032 4.82 4.82 10.184 5.676 15.86 3.965-5.442.933-14.694-5.831-16.171.077.078.155.155.155.31zM298.387 132.245c-3.343 2.799-5.054 6.841-7.308 10.418-.933 1.71-1.089 3.654-1.477 5.442 3.187-5.442 6.141-11.04 9.407-16.404-.233.233-.467.388-.622.544z"/><path d="M452.556 718.834a32.805 32.805 0 011.4 3.498c-22.936 12.828-46.881 25.112-72.77 30.477-38.718 6.997-79.534-.39-114.364-18.348-12.906-7.23-24.8-16.327-36.385-25.5-11.04-10.652-20.99-22.392-31.176-33.82.234-2.021.467-4.12.622-6.142 38.718 47.813 82.255 77.357 145.229 80.544 38.328 3.266 74.48-13.216 106.977-31.953.078.466.311.855.467 1.244z"/><path d="M440.739 784.529c-1.322-6.92-1.244-13.995.388-20.836v.155c.078-.233.078-.388.156-.622v.156c1.244-7.541 5.597-13.994 8.085-21.147v.078c3.965-15.394-5.209-29-14.227-40.583-1.322-2.566-6.453-5.365-4.043-8.474 3.732-2.955 9.252 8.007 11.895 10.34 9.019 11.817 18.892 28.377 10.34 42.993v-.078c-3.498 6.997-9.096 13.061-10.34 20.991v-.155c-.466 2.255-.933 4.51-1.088 6.764v-.156c-.311 3.577 0 7.153-.156 10.73.933.621-.933 1.399-1.01-.156zM200.972 664.49c-2.177-4.743 6.453-11.507 9.64-14.539l-.077.078c.077 0 .077-.078.155-.078h-.078c.544-.388 1.089-.777 1.633-1.244l-.233.234c.233-.156.466-.389.777-.544.078-.078.156-.078.233-.156-.077 0-.077.078-.155.078.155-.078.31-.233.466-.311h-.077c2.099-1.555 4.276-2.877 6.452-4.198 4.043-1.4 20.992-13.917 23.09-9.019.623 1.322 0 2.799-1.243 3.42-6.53 3.266-12.984 6.765-19.359 10.341.078-.078.234-.078.311-.155-5.286 3.11-10.729 6.452-14.616 11.273-2.177 1.632-3.576 7.696-6.92 4.82zM608.746 394.636c.078-1.011 0-2.022 0-3.11 1.167-1.01 2.333-2.1 3.499-3.188 8.63-8.396 16.56-17.493 24.023-26.977 8.241-10.574 15.705-21.847 22.78-33.275.544 1.01 1.166 2.02 1.71 3.032-6.764 11.117-14.383 21.846-22.235 32.186l.155-.155a319.682 319.682 0 01-6.375 8.007c-7.152 8.708-14.771 17.104-23.634 24.102 0-.234 0-.467.077-.622zM130.224 628.338c-4.276-4.665 2.72-23.634 6.22-28.999v.078c4.897-6.686 11.35-12.206 18.58-16.249l-.077.078c.077-.078.233-.156.31-.156l-.077.078c.31-.233.7-.389 1.01-.622-.077 0-.077.078-.155.078.155-.078.311-.233.544-.311-.078.078-.233.155-.31.155 1.32-.777 2.643-1.554 4.12-2.176-.078.077-.234.077-.311.155 4.198-1.555 7.93-4.12 12.284-5.364.077 0 .155-.078.31-.078-.077 0-.077 0-.155.078 3.032-.778 5.131-3.11 7.153-5.365l-.156.156c4.276-4.276 7.464-9.485 12.206-13.295 3.032-1.943-6.375 9.952-6.686 10.962-.078.078-.155.234-.233.311 0 .078-.078.078-.078.156l.078-.078c-.233.311-.467.7-.7 1.01 0 0 0-.077.078-.077 0 .078-.078.078-.078.155v-.077c-4.276 7.541-11.35 12.05-19.125 15.471.077-.078.233-.078.31-.155-6.374 2.876-12.516 6.452-18.036 10.728.078-.077.155-.077.155-.155l-.233.233a60.32 60.32 0 00-6.53 6.064c-.078.078-.156.156-.156.234l.155-.156c-5.597 7.308-8.318 16.87-8.785 26.045-.31.544-.855 1.088-1.632 1.088zM521.438 779.942a31.842 31.842 0 01-3.81-.467h.156c-.077 0-.155 0-.233-.078h.078c-4.354-.31-8.008-2.643-11.584-4.975.077.078.155.078.233.155-4.043-3.265-7.775-7.23-9.796-12.05-.544-1.555-2.566-3.81-1.633-5.365 1.866 2.177 3.732 5.52 6.298 7.62 1.088.932 2.254 1.865 3.343 2.876l-.078-.078c1.088.933 2.1 1.866 3.188 2.799l-.078-.078c6.686 5.676 15.393 6.686 23.868 5.598 4.198.389 10.495-5.675 13.683-3.732.233.544 0 1.244-.544 1.477-7.23 3.654-14.85 6.686-23.09 6.298zM661.069 810.34c-.389-.466-.233-1.166.233-1.477 4.432-3.265 8.708-6.842 11.662-11.584 0-.078.078-.078.078-.156v.078s0-.078.078-.078v.078c4.897-6.53 7.385-14.46 8.24-22.468 9.485-4.51-1.788 20.136-4.509 22.468 0-.078.078-.078.078-.155-.233.31-.389.622-.622.933-2.41 3.42-11.195 13.216-15.238 12.361zM691.7 805.986c-.621-2.099 2.955-3.965 3.577-6.064V800c.389-.855.777-1.788 1.088-2.721v0c0-.078.078-.156.078-.233v.077c0-.077.078-.233.078-.31 0-.078.078-.156.078-.234 0-.078 0-.078.077-.155v.077c.234-.7.467-1.477.622-2.176v-.078c0-2.255 2.177-2.1 1.478.155-1.089 4.12-3.266 10.263-7.075 11.584zM124.548 777.454c-15.782-.467-31.72-4.354-44.004-14.85-1.477-1.632-11.817-9.173-9.251-10.495.388.233-.078.777.466 1.01h-.078c1.944 1.322 3.654 2.955 5.598 4.432l.078.078c.933.7 1.788 1.4 2.72 2.099 2.255 1.71 4.665 3.11 7.076 4.51.077 0 .077.077.155.077a73.484 73.484 0 006.064 3.032c9.64 4.198 19.748 6.92 30.32 7.386H124.782c7.464.622 14.927-.7 22.313-1.866h-.077c2.332-.389 4.742-.7 7.074-1.01h.078c15.394-.234-27.6 6.685-29.62 5.597zM108.377 810.185c-1.633 0-13.76-2.566-9.407-4.587 1.477.7 3.032 1.321 4.665 1.632h-.156c1.788.467 3.576.778 5.442.933H109c2.177.234 4.354.078 6.53.078h-.155c1.4.233 4.043-.933 4.51.855-.234 2.022-3.11.855-4.51 1.244-2.254.078-4.665.233-6.997-.155zM704.14 397.123c-.855-2.565 12.595-9.329 14.85-12.828l-.156.156c2.021-1.944 4.043-3.887 5.986-5.909l-.078.078c14.072-14.227 25.734-30.554 35.919-47.736-.078.078-.078.156-.156.234.078-.156.156-.234.234-.39.077-.155.155-.232.233-.388-.078.078-.078.156-.156.233l.234-.466c-.078.078-.078.155-.156.233 5.909-10.262 10.573-21.147 15.394-31.953 0-.078.077-.156.077-.233.078-.156.078-.234.156-.39v.079c0-.078.078-.156.078-.234v-.077.077c1.321-3.265 2.41-6.53 3.265-9.951 0 .078 0 .155-.078.233a111.125 111.125 0 002.488-13.294c0-.156 0-.311.078-.389.466-3.81.155-7.62-.389-11.35v.077c-.078-.7-.233-1.4-.389-2.1 0-.155-.077-.232-.155-.388v.078c-.078-.156-.156-.311-.311-.389-.389-.31-1.477-.855-.467-1.01 6.376 1.477 3.732 24.956 1.944 30.242-11.35 35.53-31.876 68.416-58.853 94.15l.155-.156c-3.032 2.877-6.22 5.676-9.64 8.086.078 0 .078-.078.155-.078-2.332 1.244-8.085 7.464-10.262 5.753zM764.86 411.506c-.234-.388-.156-.855.232-1.088 4.665-3.265 9.485-6.453 14.072-9.952l-.078.078c1.633-1.244 3.266-2.565 4.743-4.043l.078-.077c4.042-4.043 7.386-8.708 10.184-13.606 0-.077.078-.077.078-.155 0 0 0 .078-.078.078.156-.234.311-.545.467-.778 0 0 0 .078-.078.078.078-.156.156-.311.311-.467 0 0 0 .078-.078.078.078-.155.156-.31.311-.466 0 0 0-.078.078-.078.078-.078.078-.156.156-.233 0 0 0 .077-.078.077.078-.077.078-.155.155-.233v.078s0-.078.078-.078c.933-.855 3.42-8.785 4.51-5.675-1.4 2.876-2.877 5.83-4.51 8.63 0 0 0-.078.078-.078-4.976 9.407-12.44 17.026-21.38 22.624-2.721 1.088-6.842 5.986-9.252 5.286zM471.759 127.813c-.466-1.088 1.4-1.399 2.1-1.943l1.165-.7h-.077c2.643-1.555 5.286-3.11 8.007-4.587 0 0-.077 0-.077.078 4.587-2.644 8.863-5.676 13.605-8.008-.078 0-.078.078-.155.078 3.187-2.022 6.686-3.343 9.95-5.054 0 0-.077 0-.077.078 1.555-1.01 3.343-1.788 5.287-1.477h.389c6.997.31 4.664 1.322-.545 1.244h.078c-4.51 1.788-8.863 4.51-13.372 6.686-4.198 2.1-8.241 4.51-12.284 6.92l.078-.078c-.078.077-.156.077-.311.155l-.078.078c-.078 0-.155.078-.155.078-4.354 1.788-9.097 5.908-13.528 6.452zM597.94 356.54c-.156-1.71-.311-3.343-.622-5.053v.078c-.855-4.82-1.166-9.719-1.944-14.539v.156c-.155-.933-.389-1.866-.544-2.8v-.077 0c-.544-5.83-1.322-11.662-2.566-17.337-.077-.467-.155-.933-.233-1.322-.155-.855-.31-1.71-.622-2.488v.078c-.933-2.565-1.555-5.131-2.254-7.774v.077c0-.077 0-.077-.078-.155v-.078.078c0-.078 0-.078-.078-.156-.466-1.321-.7-2.72-1.166-4.042v.155c-.156-.544-.7-1.244-.156-1.71 4.043-.156 5.287 11.195 6.453 14.538v-.078c.311 2.177.544 4.276 1.01 6.453v-.155c.39 2.177.467 4.353.856 6.453v-.156c0 .156.078.311.078.389v-.156c.7 2.955.389 5.987 1.088 8.941v-.155c0 .077 0 .155.078.233v.311c.622 4.198.855 8.396.855 12.672-.078.933 1.633 9.407-.155 7.62zM593.275 426.045c-1.322-.7 0-2.177.078-3.266 2.254-10.262 3.032-20.758 4.509-31.176V391.371c.389-4.821.078-9.719.544-14.54v.079c.156-.7.156-9.485 1.01-5.365v-.078.078c.156 1.477.467 3.032.467 4.51 0 .466 0 .932.078 1.399v-.078.778c.233 4.587.389 9.251 0 13.838v-.155c-1.01 9.562-2.021 19.203-4.198 28.61v-.155c0 .077 0 .155-.078.233 0 .155-.078.233-.078.389v-.078c-.466 1.555.078 5.597-2.332 5.209zM449.446 394.48c-3.576-.155-6.764-1.866-9.951-3.265.077 0 .155.078.233.078-14.46-5.132-22.546-18.426-27.056-32.42-10.65-24.49-15.549-51.079-18.58-77.512v.31c-.156-1.477-.312-2.876-.467-4.353v.31c-1.4-12.438.855-24.8 2.021-37.162.078-1.01.389-3.887 1.866-2.487.233 32.886 1.633 65.928 11.584 97.648 0-.078-.078-.233-.078-.311 4.743 14.383 9.719 28.999 17.804 41.905 18.581 20.68 39.417 13.605 57.22-3.732l.079-.078.077-.078c15.472-18.114 35.141-37.862 36.385-62.973v.155c.778-12.75-7.075-25.578-2.643-37.862 6.997 25.5 9.174 50.301-8.008 72.381 0 0 0-.078.078-.078-14.694 21.147-32.187 48.902-60.564 49.524zM511.176 259.825c-.233-.855.155-1.71 1.01-1.944-.388.778-.621 1.555-.932 2.41 0-.155-.078-.31-.078-.466zM383.13 173.839c-.312-.156-.623-.389-.934-.545-.077 0-.077-.077-.077-.077h.077c-2.954-1.477-5.986-2.8-9.018-4.12-4.276-1.711-8.708-3.11-13.14-4.355-.155 0-.232-.077-.388-.077h-.078c-.544-.156-1.088-.311-1.632-.389h.077c-.155-.078-.31-.078-.466-.155-.7-.078-5.131-1.244-3.032-1.866 2.41.388 4.742.933 7.153 1.477h-.078c4.975 1.244 9.796 2.876 14.46 4.742 0 0-.077 0-.077-.077.077 0 .155.077.233.077 1.477.622 12.672 4.82 6.92 5.365zM366.803 193.975c-.933-3.888 11.584-7.23 14.771-8.319.078 1.088.856 1.866 1.4 2.721-3.888 1.01-7.775 2.41-11.351 4.276-1.477.544-3.42 3.032-4.82 1.322zM224.684 339.67c.078-.39.233-.7.544-.933.156-.078.311-.234.467-.39 13.839-15.004 18.27-35.762 20.37-55.432-1.09-31.953-13.917-62.196-26.279-91.273-13.683-32.186-31.953-62.196-9.174-95.315 21.536-27.367 46.725-51.934 72.614-75.18 2.955-1.71 27.445-28.455 24.102-18.115-32.887 31.642-67.794 62.352-94.306 99.67-17.648 29.154-3.11 53.177 9.252 80.544 0-.078-.078-.078-.078-.156.078.078.078.234.156.311v-.077c13.45 29.776 28.144 60.408 31.02 93.372-.155 16.17-5.753 38.095-15.082 51.312-1.866 2.565-3.577 5.286-5.831 7.619l.155-.156c-1.866 1.555-6.064 8.708-7.93 4.199zM312.303 48.902c-6.453-5.909 4.12-17.182 7.697-22.469 6.764-9.562 16.638-16.56 26.744-22.312l-.077.077c1.244-.622 7.541-5.675 5.908-1.477-5.286 3.654-10.962 6.842-16.015 10.962-1.866 1.477-3.577 3.265-5.21 4.976l.156-.156c-2.177 2.488-4.742 4.51-6.686 7.153-2.41 3.576-5.131 7.075-7.386 10.729.078-.078.078-.156.156-.233-2.877 2.798-1.788 13.139-5.287 12.75zM383.984 69.66c-3.11-1.166-1.554-5.598-.622-7.852 4.199-9.097 14.072-13.062 22.702-16.716 5.831-2.332 12.05-3.731 18.115-5.209.7-.155 1.477.311 1.632 1.011-.31 2.954-5.908 2.332-8.085 3.576.078 0 .155 0 .155-.077-.155.077-.31.077-.544.155h.078c-.233.078-.389.156-.622.156.078 0 .155-.078.155-.078-.155.078-.31.078-.466.155.078 0 .156-.077.156-.077-.234.077-.545.155-.778.233h.078l-1.4.466c.078 0 .156 0 .156-.077-.156.077-.311.077-.467.155h.078c-.155.078-.31.078-.389.156-10.884 4.431-26.588 9.173-28.143 22.701-.156.7-.933 1.477-1.789 1.322zM356.774 319.223c-1.71 24.878-35.064 47.191-39.495 73.702-1.4-.7-2.721-1.477-4.12-2.177 5.753-29.62 34.44-46.802 43.537-75.024.078 1.166.078 2.332.078 3.499zM347.133 375.044c-.31-.467 0-1.322.622-1.244.311-.311.467-.7.7-1.089 0 0 0-.077.078-.077 1.01-1.789 1.788-3.654 2.643-5.52v-.078c3.498-8.552 7.541-16.949 11.895-25.112.155-.389.622-.544 1.01-.31 1.167 1.01-.855 2.72-1.166 3.964a242.514 242.514 0 00-8.396 17.57c-.622 1.556-1.322 3.033-1.944 4.588v-.078c-1.244 1.866-2.72 8.785-5.442 7.386zM372.79 329.407c-.234-2.021-5.91-15.627-3.344-15.082.078.077.156.233.156.31v-.077c.077 1.477 7.619 18.581 3.187 14.85zM415.471 88.319c-2.41-1.089.39-5.598.622-7.62 1.166-2.02.778-6.84 3.654-6.919.7.234 1.167 1.011.856 1.633-1.4 3.887-2.877 7.697-4.121 11.584.544.622-.233 1.71-1.01 1.322zM437.94 102.78c-.156-4.82 4.587-4.51.777.077-.155.311-.7.311-.777-.078zM448.202 117.085c-.466-1.944 2.877-3.188 4.043-4.587.389-.39 1.088-.39 1.4 0 .855 2.176-3.344 3.11-4.588 4.431 0 0-.077 0-.077.078-.156.155-.545.31-.778.078zM423.013 101.613c-.933-1.71 8.396-25.345 9.174-17.881-2.877 5.52-6.142 10.962-8.241 16.87.388.234 0 .7-.156.933-.078.39-.622.545-.777.078zM541.652 702.74c-3.498-4.12-5.753-9.718-7.23-14.927 0-.077-.078-.155-.078-.233-1.788-5.053-1.866-12.361 2.566-16.015 0-.545.7-.467.622.077.466.234.622.7.544 1.244-.933 3.577-1.01 7.308-.311 10.962.855 4.354 2.021 8.786 4.354 12.673 1.788 1.71 3.965 7.152-.467 6.22z"/></g><g fill="#040404" fill-rule="nonzero"><path d="M539.164 573.45c-6.608-2.177 17.493-11.74 19.748-12.828-.078 0-.156.078-.156.078l2.332-.933c1.478-.467 3.888-2.333 4.743-.156.31.778-.156 1.633-.933 1.944-8.319 3.187-16.638 6.53-24.412 10.962.078.622-.622 1.166-1.322.933zM542.352 589.466c0-.622.622-1.089 1.166-.856 6.375-1.166 12.828-1.166 19.28-1.555 6.531 3.499-17.492 2.177-19.28 3.266h-.078c-.466.233-1.088-.234-1.088-.855zM559.611 618.853c-1.555-.7-23.79.467-17.959-2.643h-.078c1.788-.078 25.345-1.477 18.037 2.643zM539.009 642.177a.956.956 0 01-.544-.855c-.078-.856.777-1.089 1.477-.933h-.078.078c2.565-.467 5.053-1.011 7.619-1.4.544-.077 1.088.234 1.166.778-.467 2.332-4.743 1.4-6.686 2.177h.078c-1.011.155-2.1.544-3.11.233zM558.834 661.769c-6.764-1.555-13.606-3.11-20.292-4.898.078 0 .078 0 .156.077-1.633-.388-7.62-1.788-3.888-3.654 2.8.778 5.676 1.555 8.552 2.177 5.365 1.167 10.652 2.177 16.016 3.266 2.1.31 1.477 3.498-.544 3.032zM511.254 597.473c-2.955-1.71 7.774-11.584 9.096-9.018.7 3.032-5.909 4.82-7.23 7.697.466 1.166-1.011 2.099-1.866 1.321zM518.173 607.036c-1.633-1.633 1.555-2.643 2.721-3.188 1.4-.7 2.332 1.555.855 2.1-1.321.077-2.332 1.632-3.576 1.088zM514.208 630.126c-2.721-3.498 6.842-3.654 8.785-4.509 2.255-.466 2.721 3.11.467 3.265-3.11 0-6.453 1.011-9.252 1.244zM549.738 605.403c-1.478-2.565 4.587-2.643 6.141-3.343 1.866-.388 2.333 2.566.39 2.721-2.178 0-4.588.856-6.531.622zM508.533 648.008c-1.866-2.1 2.176-2.721 3.576-2.721 2.799.622.933 3.265-1.322 2.565h.078-.156c-.777-.233-1.399.622-2.176.156zM475.569 607.891c-2.41.7.7-20.991 2.332-17.104-.233 1.477-.467 2.954-.622 4.432-1.01 2.72.622 11.972-1.71 12.672zM491.118 616.365c-2.877-2.332 2.798-3.965 4.509-4.587 2.099-.7 3.032 2.644.855 3.11-1.944.078-3.654 1.166-5.364 1.477zM485.442 639.145c-1.321-4.198 5.52-3.887 8.163-3.654.933.078 1.71.855 1.71 1.866-.699 3.343-5.13.466-7.385 1.555-.389 1.01-1.944 1.166-2.488.233zM516.696 668.766c-1.71-2.177 1.088-4.276 2.954-5.131 3.576-1.167 3.965 3.731.544 4.353-.388 1.555-2.487 2.022-3.498.778zM432.964 629.893c-3.576-.7-8.241.233-11.273-1.866-.933-3.11 9.33-.855 11.429-1.477 2.176.078 1.943 3.499-.156 3.343zM441.05 612.323c-1.322-1.167 1.632-2.333 2.487-3.032 0 0-.077 0-.077.077 2.099-.7 5.83-4.509 7.696-3.032.311 2.022-3.265 2.1-4.509 3.188-2.021.622-3.81 2.021-5.597 2.799zM460.72 635.569c-3.577-.467-7.153-1.244-10.807-1.167-1.322.778-2.955-.7-2.255-2.099 2.177-2.41 12.05-1.088 14.85.078 1.243 1.322-.078 3.498-1.789 3.188zM426.2 671.098c-2.177-1.632 1.944-4.12 2.799-1.866.544 1.477-1.633 2.566-2.799 1.866zM398.99 609.835c-2.566-2.177 1.632-4.665 2.798-6.53.933-1.322 5.753-6.376 5.21-2.022-1.556 1.866-5.443 10.418-8.009 8.552zM408.63 631.914c-1.555-1.399.855-3.965 2.565-3.42 2.8 1.166-.777 4.898-2.565 3.42zM396.501 675.918c-.7-1.71 1.322-3.187 2.1-4.587 3.81-4.898 7.93-9.718 11.74-14.616 8.94-2.41-11.04 16.016-11.974 18.193.39.855-1.244 1.943-1.866 1.01zM414.538 690.612c-1.943-4.353 10.185-9.796 13.373-12.128.622-.389 1.477 0 1.788.622.7 2.255-2.8 2.643-4.12 3.81a74.365 74.365 0 00-5.287 3.265c.077 0 .077-.078.155-.078-.233.156-.466.389-.7.544-.077.078-.155.156-.233.156l-.078.077c-.077 0-.077.078-.155.078-.156.078-.233.156-.389.311.078 0 .078-.078.156-.078-.078.078-.234.156-.311.234.077 0 .077-.078.155-.078-1.633.7-2.332 4.12-4.354 3.265zM492.672 587.988c-1.166-.933-2.565-1.166-3.576-2.254-1.088-3.343 3.654-.933 4.976-.156 1.633.855.155 3.421-1.4 2.41zM453.722 652.828c-4.12-3.11 5.598-6.764 7.852-8.008 3.343-.933 3.266 3.421.156 3.81.078 0 .155-.078.233-.078-2.1 1.088-5.053 1.71-6.453 3.576-.31.544-1.088.855-1.788.7zM456.91 619.942c-2.566-1.477 3.887-9.252 5.675-7.775.622.7 0 1.477-.622 1.788l-.078.078c-1.088.855-2.177 1.71-3.187 2.643l.078-.077c-.467.466-.933 1.01-1.244 1.555-.156.388-.39.777-.39 1.166.39.233.156.855-.232.622zM433.664 645.52c-5.131-2.721 5.753-10.651 7.93-6.686 1.321 3.265-3.188 3.265-5.054 4.665-.544 1.088-1.321 2.565-2.876 2.02zM530.534 595.918c-2.798-.466.311-5.13 2.022-3.11 1.088 1.4-.467 3.266-2.022 3.11zM280.583 591.254c-3.887-2.41 7.464-11.818 10.03-11.507 2.954 1.633-1.322 4.665-2.333 6.375-2.255 1.71-4.276 7.309-7.697 5.132zM308.65 609.29c-3.888.623 4.197-21.146 6.297-19.669 1.477 2.177-1.322 5.675-1.478 8.241-1.555 2.721-1.01 11.895-4.82 11.429zM345.112 611.467c-2.41-1.166.233-5.13.622-7.074.466-.933 1.943-.545 1.866.466-.156.933-.467 1.788-.622 2.721-.39 1.322.077 3.965-1.866 3.887zM363.537 624.373c-2.332-1.632 7.153-11.428 9.252-11.662 2.1-.233 2.332 3.032.156 2.644-2.955 1.477-6.376 10.495-9.408 9.018zM374.266 642.41c-1.4-2.643 4.898-4.742 6.92-5.131 2.176.078 1.71 3.42-.39 2.954-2.176.311-4.43 4.12-6.53 2.177zM310.204 641.555c-1.322-2.877 3.887-4.743 5.287-6.842 1.321-1.244 6.92-6.608 6.297-1.71-2.876 1.166-9.407 10.651-11.584 8.552zM373.411 670.087c-2.877-1.788 2.255-8.474 4.354-9.562 2.099-.778 3.11 2.565.933 3.11-2.333 1.555-2.022 7.074-5.287 6.452zM426.511 612.245c-1.632-1.089 2.41-4.976 3.576-4.587 1.322.777-.233 2.099-.777 2.876-.7.856-1.477 2.722-2.799 1.71zM171.973 407.775c-2.644-.7-13.372-2.255-12.362-5.831.311-.933 1.477-1.555 2.488-1.167 1.4 1.011 15.782 5.443 9.874 6.998zM152.225 433.975c-3.187-3.732 26.2-11.04 23.79-6.142-.233.389-.544.777-1.01.933-5.598.31-11.351 2.332-16.715 4.276.077 0 .155-.078.233-.078-1.866.467-4.743 3.499-6.298 1.01zM164.043 452.167c-.467-3.654 12.284-4.431 15.238-6.297 3.576 1.866-5.054 4.276-6.375 4.975-2.644.234-6.92 4.121-8.863 1.322zM183.635 475.335c-.933-2.954 4.12-3.732 5.675-5.597.7-.7 1.944-1.167 2.643-.234 1.4 2.1-1.866 3.188-3.11 4.276-1.554.622-3.653 3.421-5.208 1.555zM190.476 414.305c0-.389.622-.466.622 0 0 .389-.622.389-.622 0z"/><path d="M191.565 415.705c-2.022-.778-6.92.233-6.997-2.722 0-3.11 11.74 2.1 6.997 2.722zM192.342 431.02c-.855-1.71 3.81-2.565 3.265-.622-.7.545-2.565 1.866-3.265.622zM199.106 451.001c-.778-1.4 1.322-1.71 1.944-2.643l-.078.077c.078-.077.078-.155.078-.233-.778-1.788 1.477-2.254 1.71-.389.31 1.633-2.255 4.665-3.654 3.188zM623.285 384.373c.155-1.788-2.721-12.44.233-11.35 1.555 3.265 1.477 7.307 2.488 10.806.389 1.71-2.41 2.255-2.721.544zM623.44 358.95c.233-2.332-.777-8.085 2.8-7.774 1.01.31.854 1.788-.156 1.866-1.011 2.021 1.088 5.986-1.322 6.997-.622.078-1.322-.467-1.322-1.089zM638.523 368.902c-.855-2.566-8.086-10.263-3.188-11.273 1.011.078 1.633 1.01 1.555 1.943 1.322 2.566 3.032 4.898 4.51 7.386 1.166 1.866-1.711 3.81-2.877 1.944zM634.402 341.613c-2.332-2.021.856-5.753 3.188-3.654 2.41 2.022-.778 5.753-3.188 3.654zM657.57 351.254c-3.731-2.644-7.385-5.52-11.506-7.464-1.01-5.83 11.351 3.81 13.295 4.743 1.788 1.166-.078 3.965-1.789 2.72zM241.244 332.517c-2.566-1.166-15.705-1.4-14.927-3.732 2.41-3.11 12.517 1.944 16.326 1.944 2.41-1.944 2.488 2.799-1.4 1.788zM266.122 362.915c-1.243-4.042-2.876-7.93-3.965-11.972v.077c-.155-2.565-4.353-10.728-2.176-11.895 2.643.622 3.498 12.362 5.053 15.472v-.078c.311.933.544 1.944.855 2.877v.077c.233.778.467 1.633.7 2.488v-.078c.31.778 1.4 4.354-.467 3.032zM284.004 362.293c-.233-.31-.311-.621-.233-.932v.077c1.632-3.032 3.11-6.297 5.13-9.174.39-.622 1.167-.777 1.789-.466 1.71 1.322-.777 3.11-1.477 4.354 0 0 0-.078.078-.078-1.633 1.477-2.955 7.152-5.287 6.22zM268.066 318.367c-2.721-1.088.7-4.353 1.166-6.142 1.4-1.71 1.944-6.297 4.82-5.208 2.644 2.41-2.254 5.753-3.11 8.163 0-.078.078-.078.078-.156-.31.467-.622.933-.933 1.4-.544.777-.932 2.099-2.02 1.943zM286.958 324.587c-2.332-.078-1.01-7.153 1.166-6.453 1.4.389 1.011 1.866.778 2.954-.311 1.244 0 3.654-1.944 3.499zM248.785 316.58c-2.876-1.322-5.442-3.344-8.396-4.51-1.4-.855-4.665-.855-4.199-3.188.933-3.731 13.062 5.754 14.228 7.153v-.078c0 .855-1.01.933-1.633.622zM248.863 342.702c-.078-1.633 1.788-1.478 2.954-1.4.7 0 1.4-.7 2.022-.078 2.021 2.41-4.743 4.043-4.976 1.478zM266.9 333.994c-2.1-1.244-8.552-2.332-7.93-5.287 2.332-2.487 5.83 2.177 8.707 2.255 2.1.467 1.244 3.732-.777 3.032zM264.956 303.673c-1.321-1.554-7.23-11.895-5.364-13.138 2.643-.311 3.11 6.375 4.51 8.318 0 0 0-.077-.079-.077.156 1.243 3.343 4.897.933 4.897zM258.581 309.504c-2.099-.466-8.552-4.898-7.463-7.074 2.332-.7 3.498 3.498 5.52 4.431.7.467 1.321 1.01 2.176 1.166.933.233.7 1.633-.233 1.477zM67.017 684.16c-3.81-4.043-7.62-8.008-11.585-11.818-3.032-3.032-6.53-5.52-9.873-8.163-2.41-1.866-4.898-3.499-7.308-5.365.077.078.155.078.233.156-.078-.078-.233-.156-.311-.233.078.077.155.077.233.155-.078-.078-.233-.155-.31-.233l-.079-.078c-5.13-3.654-10.417-7.23-15.86-10.418.078.078.156.078.234.156-.156-.078-.234-.156-.39-.233.079.077.156.077.234.155l-2.099-1.166c-6.297-3.576-11.973-8.163-15.705-14.46-.7-4.977 5.287 3.42 6.531 4.197h-.078c.467.467 1.011.856 1.555 1.322l-.155-.155c2.799 2.099 5.986 3.576 8.863 5.364.855.467 1.632.933 2.488 1.4.233.077.388.233.622.31-.078-.077-.156-.077-.234-.155 5.987 3.42 11.973 6.842 17.493 11.04l-.078-.078c2.488.855 38.018 30.32 25.579 28.3z"/><path d="M67.794 685.792c-3.576-5.131-9.018-9.951-10.729-16.016v.078c-.233-.777.778-.544.622.156v.155s.078.078.156.078h.077c2.255.389 17.804 18.037 9.874 15.549zM394.247 268.377c-3.576-10.651-.622-21.535-.078-32.42.311-11.117 1.866-22.857-1.788-33.586-.233-1.71-2.021-3.654-1.322-5.209 12.44 9.485 6.764 42.993 5.52 57.843 0-.078 0-.156.078-.311-1.088 4.354-.078 8.785.466 13.139.311 1.866-2.487 2.41-2.876.544zM252.517 263.712c-3.343-.388-13.605-.622-13.76-4.742.232-.933 1.243-1.555 2.176-1.244 4.82 1.555 9.951 2.643 15.083 2.255h-.078c2.021-.545 6.064-.7 3.887 2.41-2.1 1.321-4.898 1.166-7.308 1.321zM239.067 228.882c-.31-.077-.7-.077-1.01-.155h.155c-.156 0-.311-.078-.467-.078h.156c-.233-.078-.467-.078-.7-.155h-.078c-.31-.078-.544-.078-.855-.156h.078-.156-.077.077c-3.11-1.477-14.771-1.321-14.227-5.442.311-1.01 1.4-1.71 2.488-1.4 5.364 1.711 10.807 3.421 16.015 5.52.078 0 .156.078.234.078 1.477 1.089-.389 2.333-1.633 1.788zM213.567 159.845c-1.71.544-24.879-17.804-21.77-18.737 3.344-2.41 16.56 14.305 21.225 16.326 1.322-.466 2.333 2.41.545 2.41zM217.298 97.104c-2.332-1.244-3.731-3.81-5.286-5.83v.077c-2.955-4.665-6.298-9.64-7.775-14.85 2.799-3.81 4.276 4.276 5.598 6.065v-.078c0 .078.078.078.078.155v-.077c2.099 4.276 4.431 8.552 7.619 12.05 1.865-.233 1.554 3.188-.234 2.488zM234.713 215.588c-5.364-2.332-10.573-5.131-16.093-6.92h.078c-2.177-.077-3.343-3.11-.544-2.954 1.399.467 23.79 9.096 16.56 9.874zM235.957 189.155c-1.788-.234-18.114-11.74-10.418-10.807 3.188 2.799 6.22 5.753 9.64 8.163-.077 0-.077-.078-.155-.078a9.96 9.96 0 001.555.856c2.255-.545 1.166 2.876-.622 1.866zM271.487 252.983c-1.866-.466-5.442.933-6.297-1.166 0-.855.855-1.088 1.554-.933h-.077c2.254.7 8.785-.7 9.64 1.167v-.078c-.544 1.71-3.343.7-4.82 1.01zM277.629 241.555c-4.587-1.089-8.241-4.665-10.651-8.63-.39-.622-.078-1.477.544-1.866 2.254-.777 2.799 2.877 4.276 4.043 0-.078-.078-.078-.078-.155a15.398 15.398 0 004.82 3.81c.856.621 2.41.31 2.488 1.632-.155.777-.777 1.244-1.4 1.166zM277.473 219.553c-2.643.466-13.06-10.262-6.453-8.319 1.944 2.488 3.888 5.287 7.075 5.987 1.555.388.855 2.798-.622 2.332zM302.974 275.996c-1.866-1.166-5.753-4.51-3.965-6.686 2.41-1.322 3.032 2.721 4.742 3.654l-.078-.078c2.333.467 1.555 3.965-.7 3.11zM253.839 304.062c.31.389.622.7.933 1.089-2.566.155-6.92 3.731-8.552.622-.234-.933.388-1.944 1.321-2.177 2.41-.544 4.898-2.41 6.298.466zM265.034 300.952c-.466.234-1.01.467-1.477.778-.544-.933-1.01-1.944-1.477-2.954.544-.234 1.166-.545 1.71-.778.389 1.01.778 2.021 1.244 2.954zM264.568 282.915c-3.11-1.166-16.171-.31-16.482-3.11 1.088-2.565 8.63.7 11.195.623h.155l2.333.466h-.078c1.866.389 3.654.855 5.52 1.166.466-.155 1.01.156.7.7-.933.777-2.333.233-3.343.155zM287.502 287.502c-3.187-1.01-6.452-2.099-9.873-2.02-1.4-.234-4.043.543-4.043-1.556-.311-3.654 19.203 1.322 13.916 3.576zM211.079 127.114c-4.12-1.244-7.853-3.421-11.818-5.131-.622-.311-.855-1.089-.544-1.71 1.71-1.945 4.665 1.32 6.686 1.787 2.488 1.089 4.82 2.8 7.464 3.188.544.155.855.933.544 1.4v-.079c-.389.933-1.555.778-2.332.545zM211.623 190.943c.31-2.177 9.718-.467 11.662-.156 1.477 1.944-5.676.933-6.842 1.322h.078-1.477.155-.855.156-.156.078c-1.089-.078-2.8.31-2.8-1.166zM265.5 194.985c-2.02.078-17.725-8.63-10.106-8.552 4.198 2.722 8.474 6.142 13.372 6.609 1.244 2.021-1.866 2.488-3.266 1.943zM255.627 217.687c-1.4-.31-4.354.7-4.587-1.322 0-.544.544-1.088 1.166-1.088 1.555.622 4.198-.389 5.053 1.088v-.077s0-.078-.077-.078c.466 1.01-.7 1.633-1.555 1.477zM230.748 296.599c-.544-3.343 13.062-4.12 15.86-5.365-.077 0-.077 0-.155.078.155-.078.31-.078.466-.156 1.866-3.576 5.676 2.488-2.72 3.421h.077c-3.188 0-11.817 4.665-13.528 2.022zM242.1 272.575c-1.867-.155-1.556-3.032.232-2.876 1.244.155 2.644.388 3.888.077 1.866-5.753 7.23 4.898-4.12 2.8zM238.6 241.788c-2.954-.544-14.382.855-14.849-2.41.078-.777.778-1.4 1.555-1.322 8.008.856 16.482 2.41 24.49.39l-.078.077c.7-.311 0-1.633 1.089-1.788.933-.156 1.244.777 1.244 1.477-1.633 4.742-9.563 3.032-13.45 3.576zM230.36 152.07c-6.142-.156-5.443-3.576.388-1.477.078-.622 1.011-.622 1.011 0 1.166.933-.466 1.71-1.4 1.477zM234.402 125.948c-2.021-.856-4.198-2.566-5.597-4.276.7-3.188 4.353 2.41 5.52 3.265.466-.156.7 1.01.077 1.01zM251.584 152.303c-5.287-.466-5.598-4.198.078-1.555h-.078c.778.234 1.477.389 2.177.078 1.71 1.088-1.244 1.944-2.177 1.477zM229.66 88.319a.796.796 0 01-.467-.389c-.077-.311-.233-.544-.388-.855-1.788-3.887-12.05-15.938-8.786-19.203 2.644-.389 3.888 8.085 5.831 10.107.467.855.933 1.71 1.4 2.487 0 .078.078.078.078.156 0 0 0-.078-.078-.078.466 1.788 5.131 7.075 2.41 7.775zM191.176 171.74c-1.244-.778-.778-2.877.7-3.11 11.35-1.011 22.779-4.432 34.208-3.421 1.865.777-.7 1.866-1.633 1.866-11.118 1.322-22.313 4.665-33.275 4.665zM386.628 169.64c-4.276-2.876-8.94-4.898-13.839-6.375.156.078.233.078.389.156-3.576-2.022-12.75-1.089-12.284-6.609 1.244-6.686 25.034 4.82 28.688 7.386 3.576 1.866.544 7.464-2.954 5.442zM286.725 162.877c-4.51-5.987.544-13.062 2.177-19.359v.078c.078-.311.233-.622.31-.855 0-.078 0-.078.079-.078 3.81-12.206 10.573-20.136 24.256-16.482h-.078c1.478.233 6.298 3.42 3.11 4.198-4.431-2.021-10.573-1.322-15.082.155-7.853 6.998-11.895 23.324-14.15 33.509-.233-.389-.467-.778-.622-1.166z"/></g></g></svg>