<svg xmlns="http://www.w3.org/2000/svg" viewBox="0 0 240 81">
<g fill="none" fill-rule="nonzero">
<path d="M25.308 79.892V67.928H12.893V.888H.139v79.004h25.169zm12.753 0l1.355-11.173h10.947l1.468 11.173h12.753L54.427.888H36.933l-10.27 79.004H38.06zm10.835-22.46h-7.9l.226-2.37c1.693-17.607 2.934-32.053 3.724-44.242.677 12.189 2.032 26.635 3.725 44.242l.225 2.37zm42.211 22.46V54.949L103.522.888h-11.4l-3.16 15.688c-1.128 5.53-2.708 14.22-3.385 22.572-.79-8.351-2.37-17.042-3.499-22.572L78.805.888H66.051l12.415 54.061v24.943h12.641zm36.906.564c11.4 0 14.447-3.611 14.447-16.026V16.35c0-12.415-3.048-16.027-14.447-16.027h-6.546c-11.512 0-14.446 3.612-14.446 16.027v48.08c0 12.415 2.934 16.026 14.446 16.026h6.546zm-2.37-11.963h-1.806c-3.687 0-4.056-1.328-4.063-5.625V18.043c0-4.402.339-5.756 4.063-5.756h1.806c3.725 0 4.063 1.354 4.063 5.756v44.694c0 4.401-.338 5.756-4.063 5.756zm43.791 11.963c11.4 0 14.334-3.611 14.334-16.026V.888h-11.964v61.849c0 4.401-.338 5.756-4.063 5.756h-1.806c-3.687 0-4.056-1.328-4.063-5.625V.888H149.12V64.43c0 12.415 3.047 16.026 14.446 16.026h5.869zm39.39-.564V12.738h8.464V.888h-29.683v11.85h8.465v67.154h12.753z" fill="#197CA5"/>
<path d="M203.069 80.204c2.232-5.483 8.61-10.443 19.136-14.88l.827-.371c6.42-2.7 10.76-5.484 13.02-8.35 2.259-2.865 3.389-6.654 3.389-11.365 0-5.374-1.626-9.693-4.877-12.958-3.252-3.265-7.55-4.898-12.896-4.898-4.519 0-8.363 1.254-11.531 3.761-3.17 2.508-5.525 6.186-7.068 11.036-1.57-4.85-3.934-8.528-7.089-11.036-3.155-2.507-7.005-3.76-11.552-3.76-5.318 0-9.61 1.632-12.875 4.897-3.265 3.265-4.897 7.584-4.897 12.958 0 4.766 1.122 8.569 3.368 11.407 2.246 2.838 6.593 5.607 13.04 8.308.22.082.524.206.91.372 10.443 4.408 16.808 9.368 19.095 14.88z" fill="#FBAE3C"/>
</g>
</svg>