<svg xmlns="http://www.w3.org/2000/svg" viewBox="0 0 279 459"><g fill-rule="nonzero" fill="none"><path d="M24.969 113.3c-2.524-.979-4.747-2.484-4.032-5.459-.188-4.518-1.28-8.96-1.318-13.516-.226-5.76-.113-11.52-.226-17.243.075-4.028-1.168-8.471.226-12.311-1.13-7.944-1.507-16.001-1.696-23.983-1.168-4.254-3.24-8.358-4.107-12.65v-.113c-.376-.715.227-1.844.83-2.259.414-.3 1.017-.564 1.469-.15.904-.414 1.77-.866 2.713-1.167-2.525-2.673 13.074-2.9 14.731-3.502 7.121-1.468 14.205-3.162 21.326-4.781 4.144-1.092 8.364-2.824 12.697-2.861C83.218 9.239 99.42 8.147 115.018 3.93c.452-1.167 1.884-1.167 2.939-1.43.716-.791 1.921-.754 2.863-.867-4.785 13.705-3.278 28.84-3.127 43.109.64 13.403.49 26.919 1.244 40.284-17.784 5.949-35.945 10.617-54.256 14.72-12.961 2.862-25.62 7.041-38.62 9.752 2.487.753 1.583 4.706-1.092 3.802zm-9.005-85.388s0 .038 0 0l.188-.075c-.075.038-.113.075-.188.075z" fill="#918C58"/><path d="M56.43 178.81c-1.432-.151-2.374-1.657-1.96-3.012 0 .037 0 .075-.037.113 0-2.297.301-4.594.339-6.928v.301c.188-17.393-2.223-34.787-4.408-51.993v.301c.301-2.372-.641-4.706-.641-7.04.565-1.657 2.487-.753 2.864.565 6.33-2.711 13.262-3.389 19.705-5.61 5.576-2.146 11.718-2.41 17.37-4.556-.114.038-.19.038-.302.076 12.057-2.9 24.076-5.873 36.208-8.471 3.843-.866 7.648-1.92 11.491-2.862.98-.489 2.261-.564 3.052.34-1.318 1.58 1.545 3.5-.452 6.513.038-.076.075-.113.113-.189-1.808 3.125-1.017 6.815-.98 10.316.302 5.61.641 11.257 1.357 16.83-.415 5.948 0 11.783.377 17.657-.189 5.082.037 10.165 0 15.247.075 1.732-.905 3.954.301 5.384.34 3.652-.98 7.68.415 11.107-.038.037-.038.113-.038.15-.34-.075-.64-.15-.98-.226-1.507.415-3.052-.527-4.634-.376a.66.66 0 00-.528-.264c-.15-.263-.602-.489-.79-.15-3.806-1.13-7.725-.565-11.568.037-5.84.377-11.642.866-17.407 1.845-7.008.226-14.053 2.109-21.061 2.26-3.015.489-6.104.752-9.08 1.618.075 0 .112-.038.188-.038a25.39 25.39 0 01-5.05.64c-2.297-.865-4.935.302-7.308-.263h.075-.264.189c-1.282-.113-2.563.113-3.881.038h.15-.904c-.527.489-1.243.753-1.921.64z" fill="#CAA613"/><path d="M126.623 244.093c-2.186-.15-4.409.075-6.632-.038h.038c-8.967-.414-18.01.151-26.977-.79-4.408.226-8.553-1.582-12.96-1.13h.037c-3.617-.188-7.159.49-10.738.527-1.658 0-4.333-1.28-5.275.603-9.91-.866-20.007-.038-29.84-1.13-2.713.866-3.166-1.656-2.827-3.727-.3-3.426-.98-6.852-.828-10.316-.189-9.75.263-19.427-.754-29.102-8.741.489-17.52 1.016-26.261 1.43-2.072 1.657-3.73-.828-1.244-1.28 3.128-1.506 5.426-4.104 8.214-6.099 3.693-2.485 6.217-6.25 9.683-8.923-.037.038-.113.075-.15.113.188-.113.376-.301.565-.452.113-1.242 1.582-1.694 2.26-2.635.64-.79 1.96-1.807 2.75-.678 3.241-.49 6.481-1.167 9.797-1.28h-.264c6.97-.79 14.28-.979 21.213-.075 3.805-.075 11.152-2.07 14.204-.414 2.75-.189 5.388-1.318 8.1-1.506 3.128-.64 6.33 0 9.42-.829 2.901-.188 5.915-1.656 8.779-1.054 2.75-.564 5.878-2.07 8.628-1.204 1.13-.113 2.26-.34 3.391-.528 4.258-.79 8.628-1.242 12.999-1.43 4.069-.565 8.213-1.356 12.245-.113-.189.527.339.979.49 1.468-.038.188.037.339.075.527 0-.037 0-.037-.038-.075.151.715.34 1.43.264 2.146v-.075c.038 1.77-4.672 1.204-2.788 3.2.226.677.226 1.393.34 2.07v-.112c.074.602.15 1.242.074 1.844v-.037c.566 9.6 3.58 19.088 3.316 28.839v-.113c-.49 6.363.15 12.763.038 19.126v-.151c0 2.146-.038 4.292-.113 6.438v-.15c-.113 1.882-.038 3.802.037 5.684v-.15c-.037.414.189.866.566 1.054 0 .075 0 .113.037.15-3.24.565-6.556.603-9.871.377zM136.042 173.238a1.575 1.575 0 01-.301-.452c.226.188.414.452.527.79a1.314 1.314 0 00-.226-.338z" fill="#DAD6B3"/><path d="M195.76 358.922c-.677-.037-1.318-.15-1.958-.225 1.092.075 2.185.113 3.278.263-.415.038-.867 0-1.32-.038zM151.528 357.266c-.641-.038-1.357-.113-1.922-.414-13.489.301-27.052-1.28-40.428-1.469-10.06-.451-20.157-.225-30.255-.752-2.976-.452-21.74 1.694-17.105-4.405-1.508-5.685-.49-12.01-.905-17.884 0-.414-.037-.828-.037-1.242-2.035-1.318-.603-4.292-.83-6.288.227-6.099.114-12.235.264-18.335h-.527c1.055-1.43.15-3.463.301-5.12v-.64.038c-.301-4.292-.15-8.509-.075-12.8v.074c-.113-.828.49-1.844-.075-2.597.602-5.12-.264-10.24.226-15.324.075-3.99.527-8.245-.34-12.122 0-.791 0-1.544-.037-2.335v.076c0-2.448-.038-4.932-.34-7.38 1.47-.49 0-1.656-.075-2.522 0-.038.038-.075.038-.075-.038 0-.038-.038-.075-.038 0-.113 0-.226-.038-.339v.038a.614.614 0 00-.49-.678c.151-2.56 3.617-1.544 5.275-1.318.791-2.033 3.655-.715 5.313-.715 3.202.113 6.443.339 9.645.602 5.727.603 11.416-.414 17.106.226 7.912.829 15.9.113 23.85.565h-.038c1.432.075 2.901.075 4.333.188h-.076c2.75.301 5.501.189 8.252.452.263-.15.565-.15.829-.15h-.038c.113 0 .226-.038.377-.038 1.13-.678 2.675-.264 3.956-.301h-.038c12.999.94 26.073 2.296 39.185 2.183 7.686 1.017 15.372 1.694 23.096 2.26h-.188c.15 0 .339.037.49.037 2.675-.038 5.274.376 7.912.602h-.038.15-.075c5.313.34 10.625.414 15.938.829h-.226l2.072.112c.716.038 1.432.113 2.185.076 9.27.075 18.538.263 27.806.49.603-.904 2.035-.98 2.788-.227h.227c1.657-.979 3.767.829 2.675 2.523.452 0 .866.301 1.017.677 4.144 18.41 8.402 36.821 13.602 54.968 1.092.565.941 2.598-.528 1.92a.76.76 0 01-.414-.113 1.88 1.88 0 01-1.734.038c-3.617 1.543-8.063.602-11.943.452-1.281-.716-2.902-.452-4.296-.49h.038c-13.262-1.016-26.487-1.92-39.825-1.77-15.787-.903-31.498-.489-47.21.904-1.997-1.732-5.802-.49-8.289-.414-.49-.15-.942-.376-1.394-.527-2.976-16.942-4.521-34.072-8.364-50.864 0 .076 0 .15.037.226-.527-2.71-.301-6.25-2.524-8.17-1.206-.753-2.411.603-1.884 1.807v-.075c.189 4.33-1.507 8.772-1.243 13.215-.15 5.12 1.055 10.09 1.62 15.135.603 13.026 1.093 26.015 1.846 39.004-.038 6.551.302 13.064.302 19.615.339 2.56-2.638 19.164 1.243 17.959.038.301.188.565.414.753-.113-.075-.301-.075-.49-.113zm104.894-102.97l-.114-.339h-.037c.075.15.113.264.15.339zM261.056 343.825c.264-6.287.188-12.575.64-18.824.377 6.89.302 13.742-.678 20.594 0-.603 0-1.205.038-1.77z" fill="#D0885B"/><path d="M47.35 457.337c-2.337-.301-4.936.188-7.16-.753-4.332 1.167-3.503-6.74-1.544-8.584.226-14.42-.565-28.877-1.168-43.296 0-.076 0-.189-.038-.264v.113c-1.13-8.47-.829-16.942-1.432-25.413 1.168-5.27.566-10.58-1.846-15.474v.038c-.15-.452-.414-.866-.678-1.243-2.826-1.694-.753-8.81 2.637-5.647 9.08-3.238 18.65-2.334 28.033-1.656 4.295.564 8.44-1.092 12.734-.415 12.51-.075 25.018 1.506 37.565.904 11.68-.15 23.247 1.77 34.89 1.694h-.265c.227 0 .453 0 .679.038h-.264c.867.038 1.733.038 2.6.038 4.822 1.167 10.06.451 15.033.828.377 1.054.527 2.221.716 3.313 0-.038 0-.075-.038-.113 2.26 11.822 2.26 23.832 2.487 35.804.038.452.038.904-.113 1.356v.075c-.452 3.35.075 6.739 0 10.127v-.037c-.452 10.165.603 20.406.038 30.608v-.15c-.114 5.195.113 10.429.075 15.587-.49.715-.302 1.731.49 2.108a557.876 557.876 0 00-86.508-2.07h.038c-5.124.413-10.286-.302-15.41.037-2.901 1.054-5.915.602-8.93 1.167-4.144-.038-8.364.941-12.622 1.28z" fill="#916E58"/><path d="M229.218 112.585c-9.494-4.819-20.42-6.55-30.594-9.676l.076.038c-13.451-3.69-27.166-6.664-40.88-9.412-11.228-2.824-22.23-6.175-33.646-7.831 0 .564.075 1.13-.226 1.656 1.205 3.012-3.429 5.008-4.672 1.958-1.281-9.375-.83-18.975-1.168-28.463-.151-11.294-1.055-22.551-.867-33.846.34-3.2.414-32.002 6.744-24.81 2.186.074 3.994.978 5.991 1.656 2.977.451 5.727 1.807 8.666 2.447 7.761 2.033 15.485 4.141 23.058 6.664 5.388 1.355 11.04 2.823 16.315 4.518 3.843 1.468 7.61 3.313 11.604 4.367 10.927 2.786 21.665 6.061 32.026 10.542 3.354 2.033 13.64 2.22 9.683 8.094-.866 8.923.226 17.883.189 26.844-.038 6.024-.867 12.01-1.13 17.996.263 5.723-.038 11.483.866 17.13.414 1.808.678 3.54.377 5.384-.113 1.43 1.13 2.786.452 4.104-.49.979-1.96 1.355-2.864.64z" fill="#6A642E"/><path d="M206.197 177.53c-.263-.038-.565-.038-.866-.076a1.638 1.638 0 01-.226-.263c-.076.075-.15.15-.264.226-1.356-.113-2.713-.076-4.07-.113-1.468-.189-2.976 0-4.445-.038-.15 0-.301-.038-.49-.038-.113-.037-.264-.037-.377-.037-1.431-.301-2.976-.038-4.446-.226-1.808-.15-3.654-.113-5.463-.226-1.77-.113-3.428-.113-5.2-.264a38.743 38.743 0 01-4.181 0c-4.748 0-9.495-.602-14.28-.64h.15-.15.037c-3.428-.037-6.932 0-10.248-.903-.829-.678-2.034-.301-3.014-.603-1.77-.3-3.504-.376-5.237-.828l-.113.339c-.189.339-.49.565-.83.602-.602.113-1.242-.338-1.355-.94a1.235 1.235 0 01.037-.64c-1.394-3.427-.075-7.455-.414-11.107-1.244-1.431-.264-3.652-.302-5.384.076-5.083-.15-10.165 0-15.248-.376-5.836-.79-11.709-.339-17.657-.716-5.572-1.055-11.22-1.356-16.83-.038-3.463-.829-7.153.98-10.315-.038.075-.076.113-.114.188 1.206-1.883.49-3.765.038-5.723.716-2.447 2.487.189 2.977 1.356 12.282 3.05 24.302 6.212 36.208 10.39 1.733.829 4.446.565 5.727 2.222 5.161 1.318 9.946 3.388 14.92 5.12 1.319.64 3.39.829 4.144 2.26 2.186.3 1.32 3.086 1.357 4.592.452 1.28.037 2.786.301 4.104 1.206 1.243-.15 5.346.264 7.266-.34 1.996.942 6.853-.64 7.982-.264 6.814 0 13.893-.603 20.67.263 4.254 1.469 8.546 1.055 12.8 1.017 1.77.452 3.652.98 5.572.188.866.602 1.882-.152 2.41z" fill="#8F791C"/><path d="M142.824 116.312c-.113-.979 1.997-1.167 2.11-.226.15.98-1.96 1.13-2.11.226z" fill="#8F791C"/><path d="M226.92 250.267c-.264 0-.64-.037-.942-.037a1.107 1.107 0 01-.377-.452c-5.99-.715-12.056-.527-18.047-1.355-4.295-.753-8.478-1.13-12.773-1.544-4.973-.113-9.947.113-14.92-.376-2.26-.452-5.35.376-7.121-1.356-11.642.038-23.059-1.205-34.739-2.183-.075.188-.15.338-.301.489.15.79-1.168.904-1.206.15-.377-.188-.603-.64-.565-1.054v.151c-.075-1.882-.15-3.803-.038-5.685v.15l.113-6.437v.15c.113-6.362-.527-12.763-.037-19.125v.112c.263-9.75-2.75-19.2-3.316-28.839v.038c.075-.602 0-1.242-.075-1.845v.113c-.076-.678-.113-1.393-.34-2.07-1.883-1.996 2.826-1.431 2.789-3.2v.075c.075-.716-.113-1.431-.264-2.146 0 .037 0 .037.038.075-.038-.188-.113-.339-.076-.527-.15-.49-.64-.941-.49-1.469.189-.376.641-.15.792.151.678.038.753.941 1.243 1.355.64.076 1.281.226 1.884.34.716-.829 2.035-.34 3.014-.34.113.603.754 1.017 1.357.942.339-.076.678-.302.829-.603 1.883.34 3.805.113 5.651.565.904.188 1.997-.113 2.713.527 3.316.979 6.82.828 10.248.904h-.075c4.333-.113 8.59.866 12.885.715 1.093-.075 2.223-.038 3.354.038 1.884-.189 3.73.075 5.576.113 3.919.225 7.912.225 11.793.527h-.075c.15 0 .301.037.414.037.189.038.302.038.49.038 4.785-.113 9.72.113 14.43.602 3.542.302 7.084.565 10.625.791 1.847.301 4.296-.038 5.727 1.242.302.076.566.189.83.377 1.657.565 4.182 4.367 4.784 6.137 1.168 1.995 2.525 3.84 3.58 5.873.98 2.184 3.127 3.35 4.822 4.97 1.884 1.92 3.806 3.539 5.727 5.27.754.34 1.508.753 2.186 1.28.904.716.075 2.147-.98 1.732-.49.791-1.507.565-2.223.151-1.545.49-3.127 1.205-4.785.565-1.093-.414-2.336-.226-3.315-.904-2.676.113-5.313-.602-7.762-1.807-.226 4.668.904 9.563-.528 13.93 0 .866.038 1.732 0 2.598.603 1.393.038 3.012.076 4.442-.189 3.615-.189 7.719-.49 11.408.038 1.506.113 2.974.15 4.443 0 1.28.453 2.823-.376 3.953.64.49.678 1.318.678 2.07.49 1.243-.414 3.012-1.28 3.803-.453 0-.905-.038-1.282-.038z" fill="#A1994C"/><path d="M257.062 360.165c-.301-.113-.64-.038-.98-.113.076 0 .189.038.264.038-13.262-1.017-26.562-.151-39.863-.716h.113c-4.144 0-8.515.076-12.584.113-4.634-.376-9.344-1.054-13.978-.602-5.124.527-10.248.565-15.335-.49-1.846.038-3.768.415-5.614 0-.226-.753-.829-2.183-1.77-1.28-.189.264-.227.716-.189 1.017-2.487-.49-15.26.79-15.485-1.619-3.354.64-1.395-8.471-1.734-10.655.98-8.96.076-17.92.189-26.881-.754-12.989-1.244-26.016-1.846-39.004-.566-5.045-1.734-10.015-1.62-15.135-.264-4.443 1.469-8.886 1.243-13.215v.075c-.528-1.205.678-2.56 1.884-1.807 2.223 1.958 1.997 5.46 2.524 8.17 0-.075 0-.15-.038-.226 3.843 16.754 5.388 33.922 8.365 50.864.49.15.942.376 1.394.527 2.487-.075 6.292-1.28 8.289.414 15.711-1.43 31.46-1.807 47.21-.904 13.338-.15 26.562.753 39.825 1.77h-.038c6.142-.715 5.99 2.56 5.124 7.492-.904 4.367-.829 8.848-1.13 13.29-.038 6.589-.49 13.215-.264 19.803-.339 3.088 1.168 10.241-3.956 9.074zM58.841 306.44c-4.107.113-7.95-.79-11.981-1.544-1.206 0-2.299-2.41-.716-2.861.037-1.28.414-2.523.64-3.803v.076c.83-3.954 2.412-8.584 3.09-12.312v.113c1.77-7.755 3.24-15.586 4.672-23.417 1.017-4.669 1.394-9.563 3.58-13.893 0 .075 0 .113.037.188.075-1.28-.904-3.69.565-4.367a.633.633 0 01.678.678v-.038c-.226 1.054 1.696 2.372.113 2.974.302 2.448.34 4.932.34 7.38v-.076c0 .79.037 1.544.037 2.335.904 3.877.414 8.132.34 12.123-.49 5.082.338 10.24-.227 15.323.565.753-.038 1.732.075 2.597v-.075c-.075 4.292-.226 8.546.076 12.8v-.037.64c-.302 1.393 1.13 5.911-1.319 5.196z" fill="#804622"/><path d="M224.17 457.676c-11.793-.038-23.586-.79-35.342-1.77a33.882 33.882 0 01-5.124-.263c-2.863.79-5.878.602-8.854.527-.754.715-1.884.828-2.977.715.113-.037.226-.075.302-.15-1.281.828-2.675-.829-1.809-1.996-.113-4.141.15-8.32-.113-12.5v.038c-.113-1.054-.037-2.07.076-3.124v.15c.565-10.203-.453-20.406-.038-30.609v.038c.075-3.388-.452-6.739 0-10.127v-.076c.15-.452.15-.903.113-1.355-.264-11.973-.264-23.983-2.487-35.804 0 .037 0 .075.038.113 0-1.431-1.093-3.012-.528-4.33.942-.904 1.507.527 1.771 1.28 1.809.377 3.768 0 5.614 0 5.049 1.054 10.135 1.017 15.222.49 6.782.64 13.714.677 20.61.489 5.387.15 10.775.753 16.125.452h.038c2.637-.113 5.2.263 7.724.903.98-.79 2.75-.49 2.75 1.017l.038-.038c.113-.113.113-.301.113-.452-.038-.15-.075-.376.15-.376.453.263.076 1.054-.15 1.393V362.424c.075 2.146-1.093 4.104-1.47 6.212 2.676 2.41.49 6.4.415 9.412 1.206 14.42 1.168 29.216.98 43.748 1.13.753.301 6.777.49 8.396.263 6.325.715 12.575 1.205 18.862.15 1.807.603 4.48-.942 5.911.226 1.393-.904 3.087-2.411 2.334-1.206.49-2.45.377-3.692.377-2.638-.075-5.35.15-7.837 0z" fill="#633E26"/><path d="M186.869 360.843c-.452-.076-.904-.189-1.356-.189h.037c-1.205-.075-2.449-.188-3.654-.263-1.658 0-11.266.715-11.228-1.28.301-.264.79-.301.866.15.264.076.565.113.83.15 0-1.129 1.506-.45 2.184-.489 2.45.302 4.936.302 7.423.49h-.075c1.205.075 2.41.15 3.617.263h-.076c.49 0 .942.113 1.394.302h.038c.038 0 .075.037.113.037.527.15.377.904-.113.829z" fill="#633E26"/><path d="M213.997 362.989c-3.806-.226-7.573-1.017-11.417-1.168h.113c-4.069-.075-8.062-.828-12.094-1.204-.15.188-.377.339-.603.414-.188.527-.791.602-1.243.414-5.501-.979-11.19-.602-16.691-1.205-.452.301-.98-.64-.377-.79.075-.34.452-.565.791-.528h-.075c.866-.075 1.695 0 2.562 0 1.695-.903 3.805-.715 5.69-.677h-.114c7.423.339 14.807 1.318 22.268 1.732h-.038c.113 0 .226 0 .301.037h.113-.075c.113 0 .264 0 .377.038h-.038c.113 0 .226 0 .34.038h-.114c3.919.226 7.837.903 11.755.753 1.395-.264 2.789 1.393.905 1.731-.189-.037-.377-.037-.603-.037-.15.263-.415.452-.678.49-.377.037-.716 0-1.055-.038z" fill="#633E26"/><g fill="#040404"><path d="M118.786 79.868c-1.017-.301-.942-1.732-.15-2.259.187-2.748.187-5.459.112-8.207v.075c-.414-9.036-1.017-18.072-1.13-27.145v-.113-.188c-.076-2.824 0-5.61-.038-8.434v.038c0-.753-.038-1.506-.038-2.221v-.151c.038-1.77.076-3.539.038-5.308V25.729v-.301V25.202v.075c0-2.748.038-5.497.189-8.245v-.301.075c.075-1.958-.151-3.99.075-5.91.377-1.62.603-3.276 1.356-4.782.377-.678.302-2.711 1.545-1.958.603.903-.226 2.108-.34 3.087v-.075c0 .037 0 .075-.037.113v-.038c-1.168 3.878-1.168 7.906-1.695 11.86v-.038c-.076.79-.15 1.619-.15 2.41v-.076c-.039 3.464-.19 6.965-.302 10.429v-.038 1.318c0 .941-.038 1.882-.038 2.824v-.038c.565 13.177 1.658 26.392 1.997 39.607v-.038.075c-.038.98.113 1.958.113 2.937v-.15c.113.903-.603 1.882-1.507 1.543z"/><path d="M206.461 178.47c-.527-6.889-1.658-13.741-2.486-20.63.339-6.89.075-13.856 1.017-20.745v-.038-.038c0-.075 0-.113.037-.188 0-.038 0-.113.038-.15v.075c.49-5.685.377-11.408-.226-17.093.038-.113.038-.263.038-.414 0-.301-.076-.602-.34-.753-.037-.226-.037-.452-.112-.678.075 0 .15-.037.263-.037a14.663 14.663 0 01.076-4.97c-18.198-4.254-35.907-10.316-53.54-16.49.038 0 .075.037.075.037-.15-.037-.263-.113-.414-.15-3.278-1.017-6.33-2.523-9.457-3.84.038 0 .075.037.075.037-.603-.226-1.168-.49-1.733-.715-2.675.565-5.35 1.054-8.025 1.694-14.318 2.635-28.597 5.497-42.726 8.885.037 0 .037 0 .075-.037-8.29 1.995-16.314 5.082-24.641 7.04-.038 0-.075 0-.113.038h.038c-4.484 1.016-9.005 1.694-13.527 2.484h-.037.037c-.113.038-.226.038-.339.076l.452 1.581c2.676 13.44 2.864 27.408 3.994 41.075.377 6.626.603 13.29.942 19.916-.264 1.13.83 3.54-.565 3.916-.829-.038-.716-.979-.754-1.581-.263-5.234-.49-10.467-.678-15.7-.904-13.478-1.545-26.957-3.39-40.322-.377.075-.754-.15-.905-.452-.226-.113-.49-.188-.754-.263.038 0 .076 0 .076.037-5.69-1.43-11.228-3.501-16.804-5.346.037 0 .037.038.075.038-.452-.189-.942-.302-1.394-.527h.038c-2.412-1.017-4.898-1.62-7.536-1.431h.038-.113c-.791.113-1.846-.15-1.997-1.054-.377-.49-.867-.941-.791-1.62.301-3.5-.34-7.077-.34-10.616-1.733-21.724-.941-43.748-5.538-65.17 0 .037.038.075.038.15-.452-2.184-2.487-4.066-2.223-6.363-3.73-5.61 34.512-10.918 39.26-12.5h-.038c23.02-4.517 46.306-8.583 68.724-15.51.075-.151.301-.189.376 0 5.35-.076 10.286 2.334 15.222 4.103 0 0 .038 0 .038.038.037 0 .075.037.113.037-.038 0-.038 0-.076-.037 17.633 6.212 35.87 10.542 53.615 16.49-.037 0-.037 0-.075-.038 6.518 2.41 13.036 4.782 19.592 7.003-.037 0-.075-.037-.113-.037.189.075.377.15.603.225-.038 0-.075-.037-.113-.037 6.707 2.56 13.602 4.518 20.421 6.664.942-.452 1.96.753 1.319 1.619 1.733 6.438-.113 13.252.038 19.84-.076 13.366-.264 26.731.075 40.06v-.076.113c.075 1.317.113 2.673.226 3.99v-.037.15c.264 3.012.34 6.1 1.206 8.999.678 1.731 1.356 4.518-.49 5.722-.301.414-.942.527-1.394.264-3.768.79-7.573 1.28-11.379 1.882h.038c-4.07.98-8.251 1.469-12.434 1.807h-.188c-.226 3.69-.264 7.38-.34 11.07v-.076c0 .113 0 .263.039.376v-.037.037c-.151 8.095-2.186 16.227-1.357 24.36v-.076c1.018 5.12 1.055 10.316 1.545 15.511-.113.98 1.62 10.843-.377 8.434zM21.955 109.762c.075.151.037.34.15.415.415.075.716.414.792.828.339.075.603.301.942.339 3.956-5.271 15.184-6.476 21.4-9.15 12.208-3.275 24.302-7.077 36.585-10.127h-.037c11.152-3.162 22.38-5.91 33.759-8.019.188-.038.376-.113.565-.15.263-.603.942-.829 1.544-.603.83-.79 2.6-1.468 2.789.188 3.541-.338 6.932.603 10.36 1.431 6.142 1.092 12.208 2.635 18.312 3.99.038 0 .076 0 .076.038.113.038.226.038.376.076a2324.768 2324.768 0 0138.733 9.6h.037c14.845 2.297 28.522 9.676 43.141 12.387-.716-3.615-.867-7.304-1.13-10.956v-.038c-.678-12.273.113-24.585-.264-36.858v.075c-.264-6.664-.414-13.44.452-20.067v.113c.075-1.13.038-2.221-.038-3.35v.112c-.113-1.468-.64-2.936-1.431-4.179a.294.294 0 01-.151-.15c-18.726-5.422-36.962-12.236-55.725-17.47-17.445-5.27-35.53-8.847-52.259-16.188-2.298.527-4.37 1.694-6.518 2.635-5.312 1.807-10.926 2.635-16.427 3.765.038 0 .113 0 .15-.038-2.561.377-5.048 1.017-7.573 1.469-7.761 1.393-15.523 2.597-23.284 3.915h-.038-.038c-11.114 2.372-22.305 4.48-33.344 7.116-5.162 1.468-16.767 2.71-20.12 6.626 1.168 1.958 2.035 4.141 2.75 6.325 0-.038-.037-.075-.037-.113 3.429 12.914 2.939 26.543 3.617 39.795.188 11.935 1.243 23.832 1.733 35.767 0 .037.038.075.038.113l.113.338zm65.257-17.958c.226-.076.452-.113.716-.188-.264.075-.49.15-.716.188.038 0 .038 0 0 0z"/><path d="M78.735 151.514a.872.872 0 01.113-.602c-.076-8.998-.942-17.959-1.055-26.92-.64-4.555-1.093-9.148-1.809-13.704l-.226-.79c-1.507-1.393-.565-4.443.942-5.572l-.038.037h.038c2.6-.978.377 2.975.377 3.991v-.075.113c.98 1.393.753 3.388.866 5.045.113 3.426.528 6.814.679 10.203v-.076c.414 9.224 1.205 18.41 1.544 27.635.792 1.054-1.13 1.995-1.431.715zM101.944 152.004c-.791-.302-.754-1.318-.075-1.732.075-.603-.076-1.243-.113-1.883-.415-3.087-.754-6.212-1.093-9.3v.076c-1.356-8.094-1.922-16.302-2.637-24.51.15-3.388-.942-6.738-.151-10.052.565-2.033.49-5.157 2.75-6.061.603-.075 1.018.715.528 1.092-1.583 2.485-1.281 5.798-2.186 8.584.528 7.19.641 14.457 1.47 21.648v-.038V129.941c.414 3.351 1.055 6.702 1.507 10.053v-.038c.075.753.15 1.506.264 2.259-.264 1.77 2.562 10.165-.264 9.789z"/><path d="M80.995 153.547c-.866.038-3.315-2.07-1.47-2.334h-.037.038c.565.15.98.715 1.47 1.016 2.976 0 5.915-.338 8.891-.527h.038c.791-.075 1.582-.226 2.374-.263h-.038c2.6-.188 5.2-.301 7.8-.377h.037c.15 0 .264-.037.414-.037h-.037c.828-.038 3.127-.829 2.26.828-2.976.301-6.292-.301-9.381-.113h-.076-.151.038c-.904.113-1.77.301-2.637.49h.037c-.037 0-.113.037-.15.037-1.62.226-3.203.678-4.823.904h.075c-.226.037-.414.113-.64.15h.037a73.653 73.653 0 01-4.069.226zM79.338 111.305a.433.433 0 01.188-.527c1.243-.715 2.637-1.092 3.956-1.581.038 0 .038 0 .075-.038h-.037c.866-.301 1.77-.565 2.637-.828.038 0 .038 0 .075-.038h-.037c4.483-1.694 8.515-1.732 1.13.64h.075a8.483 8.483 0 00-.904.301c-.037 0-.037 0-.075.038-.302.113-.603.188-.904.263h.037a.699.699 0 01-.263.076c-.038 0-.038 0-.076.037h.038c-.49.151-.942.302-1.432.452-.038 0-.038 0-.075.038h.037c-1.205.075-3.654 1.882-4.445 1.167zM78.396 104.98c-3.994-.339 2.41-1.468 3.428-1.393h-.075c.264-.038.527-.075.829-.113h-.076c5.991-.715 11.643-4.894 17.257-5.873-.98 1.732-5.313 2.598-7.234 3.727.037 0 .037-.038.075-.038-.716.302-1.394.64-2.11.942.038 0 .038-.038.075-.038-3.843 1.732-7.912 2.824-12.17 2.786zM140.375 168.57c-.527-.039-.716-.603-.527-1.055-.114-6.438-.83-12.876-.49-19.314v-.075.075c-.076-2.259.075-4.556.113-6.814v.037c0-1.318-.038-2.635.037-3.953v.075c.076-.903-.113-1.92.302-2.786-.15-8.998-.942-17.92-1.394-26.881v.038c-.189-1.356-.189-2.749-.113-4.104v-.075c.037-.866 0-1.77.037-2.636v.075c0-.677.038-1.393-.075-2.07v0c.15-1.807.867-3.916 2.11-5.271.716-.264.942.64.64 1.13v-.038c-.49 1.468-.866 2.974-1.62 4.33-.376 7.943-.113 15.887.49 23.793l.113 1.017v-.038c.264 3.276.189 6.589.49 9.864v-.037c.038.677.226 1.28.15 1.957v-.075c.114 4.33.19 8.66.076 13.027v.037c-.15 6.062.302 12.161.415 18.223-.038.602.113 1.58-.754 1.543zM133.857 178.885c0-.188.301-.188.301 0s-.301.188-.301 0z"/><path d="M116.337 199.14c-.528-.941 1.28-1.393 1.733-2.07.301-.264.527-.565.753-.904.038-.075.114-.15.151-.226 2.638-4.029 5.35-7.982 7.988-12.01 0 .038-.038.038-.038.075.038-.037.075-.075.075-.15.038-.076.076-.151.151-.189 0 .038-.037.038-.037.076.075-.076.113-.189.188-.264 0 .038-.038.038-.038.075.15-.225.302-.451.49-.677 0 0 0 .037-.038.037.038-.037.076-.113.113-.15 0 0 0 .037-.037.037 1.243-2.259 3.617-5.647 6.556-4.63.678.564.037.978-.64.866-1.395.451-2.525 1.505-3.505 2.56-.038.037-.075.075-.075.113a109.286 109.286 0 00-4.032 5.308l.038-.038a118.528 118.528 0 01-4.634 6.74c-1.206 1.882-2.261 3.877-4.145 5.195l.038-.037c-.264.188-.678.64-1.055.263z"/><path d="M1.044 201.399c-1.168-.452-.038-2.259.829-1.205 15.221-.113 30.48-1.355 45.702-1.167 12.396.226 24.755.075 37.113-.113h-.038.075c2.638 0 5.238-.301 7.875-.376 5.727.15 11.454-.264 17.18-.076h-.037.076c1.168.302 8.176-1.242 7.12.904-5.35.866-11.19.15-16.69.301h-.076c-2.524-.037-5.01.188-7.535 0h.037-.075c-.528 0-1.055 0-1.582.075-.189.038-.377.038-.528.076h.075c-1.017.15-2.034.15-3.051.113h-.076.038c-8.327-.15-16.578.715-24.905.602h.075c-1.092-.038-2.185-.113-3.278-.113h.038-.075.037c-1.394 0-2.825 0-4.22-.037h.038-.075.038c-.792 0-1.545-.038-2.336-.038h.075c-1.281-.038-2.562 0-3.88-.038h-.038-.603c-2.261-.075-4.522-.113-6.82-.15h-.075c-13.413 0-26.94.753-40.428 1.242zM24.63 179.94c-.791-1.921 10.399-1.093 12.019-1.281h-.075.339c10.286 0 20.572-1.13 30.858-1.13h-.038.038c1.77.076 3.654-.3 5.387.151 1.13-.188 2.261-.376 3.43-.49h-.039c4.446-.451 8.817-1.28 13.225-1.769 3.014-.339 6.029-.715 9.043-1.016h-.076c9.947-1.657 20.158-1.506 30.03-3.577h-.038c1.13-.301 5.01.038 4.672 1.619.037.188-.226.264-.302.075-.301-.075-.64-.075-.98-.15h.076a16.827 16.827 0 00-3.09-.189c-1.017.528-2.223.528-3.315.678h.113c-6.066.904-12.208.866-18.311 1.619h.075c-3.843.49-7.686.866-11.567 1.242h.075c-2.6.34-5.237.49-7.837.791h.038c-4.144.49-8.251 1.167-12.396 1.581h.038c-3.24.603-6.556.678-9.872.603h.076c-10.135.49-20.308 1.167-30.481 1.167h.075c-3.203-.075-6.443.414-9.645.188-.49.15-1.281.64-1.545-.113z"/><path d="M.064 201.023c-.414-1.356 1.281-1.808 2.148-2.523h-.038c3.014-1.995 5.84-4.254 8.59-6.55l.038-.039.038-.037.038-.038c.527-.414 1.017-.866 1.544-1.28l-.037.038c2.072-1.77 3.88-3.84 6.028-5.497a28.85 28.85 0 002.713-2.974s0 .037-.038.037c.038-.037.038-.075.076-.113l-.038.038c1.017-1.468 2.6-2.861 4.37-3.162 1.395 1.016-1.507 1.694-2.147 2.183-1.394 1.581-2.75 3.238-4.446 4.518-2.26 2.033-4.37 4.254-6.82 6.1-.301.225-.565.489-.866.715a3.99 3.99 0 00-.452.376c-.038 0-.038.038-.076.038l-.037.037c-.038 0-.038.038-.076.038-3.052 2.786-6.556 4.97-9.909 7.342 0 .376.226 1.016-.301 1.129-.076.075-.34-.113-.302-.376zM43.544 226.51c-.867-.526 1.997-4.442 2.298-5.496 0 0 0 .038-.037.038.753-1.732 2.185-3.276 1.959-5.233v.037c0-.226 0-.452-.038-.64v.076c0-2.786.038-5.535.038-8.32v-.039.038c-.076-1.656.037-3.275 0-4.932V201.964v.075c-.34-.866.829-3.313 1.658-2.033-.83 1.958-.226 4.18-.49 6.287v-.075.188c.038 1.243.038 2.523.113 3.765v-.075c-.264 2.598.565 5.685-.452 8.057a881.985 881.985 0 00-4.446 8.245c-.076.113-.377.226-.603.113zM67.394 226.586c-1.809-.677 3.504-5.195 3.202-8.094v-.038-.15.075c.64-5.083-1.092-10.203-.376-15.248v.075c0-.075.037-.113.037-.188v.075c.302-.979.603-2.146 1.394-2.823.189-.264.565-.076.415.225-2.336 8.396 3.541 18.185-3.504 25.451 0-.037.037-.075.037-.075-.188.414-.602.979-1.205.715z"/><path d="M42.903 226.85c-.376-1.017 1.13-1.092 1.809-1.243h-.075a32.773 32.773 0 013.315-.263h-.075c.49 0 .98 0 1.507-.038 1.319-.037 2.637-.188 3.956-.226h-.038.076c4.596-.037 9.193.076 13.752.226 1.696-1.13 1.582 2.26-.038 1.017-2.185-.076-4.37-.302-6.518-.226h.076-.189.075c-.226 0-.452 0-.678.037h.076c-5.124 0-10.249.377-15.335.829h.038-.076c-.64.075-1.318.452-1.658-.113zM31.374 227.415c.415 4.442.34 8.922.716 13.365.829.565.377 1.958-.603 1.92-.942.038-1.432-1.242-.716-1.845-.678-13.817-1.13-27.634-1.431-41.489.376 0 .79-.038 1.168-.038.527 9.337.188 18.75.866 28.087zM135.74 243.039c-.527-.339-.338-1.054-.376-1.581.075-4.857-.038-9.714.113-14.57v-.038-.226V226.097v.037c-.038-1.43.038-2.823 0-4.254v.038c-.075-3.84.226-7.68.15-11.52v.037c0-.904 0-1.77-.037-2.673V207.46v.037c-.038-1.242-.226-2.447-.188-3.69v.038c-.189-1.995-.679-3.953-.867-5.948-.565-3.577-1.394-7.078-1.922-10.655v.075c-.15-1.016-.301-2.033-.301-3.087v-.038c.34-1.091-1.77-6.25.64-5.082 1.357 3.576.377 7.643 1.055 11.37.189 1.13.34 2.221.49 3.35v-.037c.038.226.076.49.113.715v-.037c.377 1.995.528 3.99.792 5.986v-.038c.904 5.723 1.13 11.558 1.243 17.356v-.037.452c.377 7.53.188 15.06.188 22.589v-.075.113c.038.79.452 2.823-1.092 2.22zM228.126 249.1c-.113-3.953 1.545-8.057 1.017-12.16V236.864 236.79c-.49-3.313-.49-6.476.075-9.751v.038c.264-10.43 0-20.896.942-31.287-1.582-4.33-1.507-9.035-3.014-13.403v.038c0-.038-.038-.075-.038-.113-.15-.113-.188-.339-.075-.452 1.243-.715 1.243 2.334 1.696 3.05 0 0 0-.038-.038-.038.603 1.883.829 3.84 1.243 5.798v-.075c.264 1.995 1.319 3.915 1.319 5.873-.113 1.355 0 2.71-.075 4.066v-.075c-.038.376-.076.79-.113 1.167v-.075c-.415 12.763-1.281 25.526-.377 38.213v-.037c-.038.263-.038.527-.076.79v.113c-.3.98-1.092 9.827-2.486 8.471z"/><path d="M251.448 206.783c-4.07-3.803-8.515-7.229-12.509-11.144l.038.037c-.528-.527-1.017-1.054-1.507-1.58l.037.037-.226-.226c-.414-.527-1.092-.979-1.28-1.657-.038-.075-.114-.15-.151-.226-1.583-2.22-2.977-4.63-4.522-6.89v-.037c-.113-.188-.188-.339-.301-.527 0 0 0 .038.038.038-.415-.716-.98-1.356-1.206-2.109-1.093-1.355-2.901-1.016-4.22-1.694-.49-2.07 2.524-1.092 3.429-.414-.038 0-.038-.038-.076-.038 1.62.866 1.884 2.824 2.977 4.217 0 0 0-.038-.038-.038.678 1.13 1.47 2.109 2.035 3.313v-.037c.866 1.317 1.582 2.786 2.637 3.99 1.771 1.507 3.165 3.502 5.049 4.895 0 0 .038 0 .038.038 2.26 1.807 4.295 3.84 6.63 5.534.114.075.227.188.34.264-.038 0-.038-.038-.075-.038.942 1.13 4.634 2.673 3.956 4.292a.854.854 0 01-1.093 0zM229.633 204.825c0-.188.301-.188.301 0s-.301.188-.301 0z"/><path d="M244.478 205.54c14.732-.753 8.063 1.168-1.281 1.205h.075c-4.597.301-9.156-.565-13.714-1.13.037-.526.075-1.016.075-1.543 4.936.452 9.834 1.619 14.845 1.468zM225.074 180.88c-1.583-1.167-3.88-1.204-5.84-1.506h.075c-1.205-.075-2.373-.113-3.58-.263h.039c-.076 0-.151 0-.189-.038h.076c-12.472-1.242-25.169-.376-37.565-1.732-9.608-.602-19.29-.602-28.86-1.995h.037-.075c-4.522-.565-9.043-1.092-13.489-1.958-.904-.339-3.391 0-2.901-1.543 1.092-.98 2.939.075 4.257.225 1.545.302 3.09.49 4.597.904.038 0 .075 0 .075.038-.037 0-.075 0-.075-.038.113.038.188.038.301.075-.037 0-.075 0-.075-.037 1.733.376 3.466.564 5.162 1.054h-.075c2.788.414 5.576.866 8.402 1.205h-.076.377c3.58.3 7.196.414 10.776.715h-.038.151c.113 0 .226.038.339.038h-.038c19.404 1.13 39.373-.49 58.513 3.426h-.037c.037 0 .037 0 .075.037 1.846-.527 1.168 2.598-.34 1.393zM132.953 175.459c-.98-.904.64-1.544 1.356-.866.414.301.113 1.205-.415.904-.339 0-.64.15-.941-.038zM128.808 244.884l-2.524-.113h.037-1.959.075c-.452 0-.904-.038-1.356-.038h.075-.527c-5.388-.075-10.738.075-16.126-.15h.113-.527.113c-.34 0-.679 0-1.018-.038h.113-.263.037c-21.74-1.506-43.442-.716-65.22-.941-1.431-.34-10.323.79-8.402-1.958 9.646.715 19.63.866 29.351.903.189.076.452.076.603-.037 6.82-.226 13.64.113 20.459-.301h-.075c2.26-.038 4.52.3 6.82.263h-.039.528-.113H89.058c.34 0 .678 0 1.018.038h-.038.527-.113.452-.113c7.649.263 15.26.715 22.908.828h-.037c4.935-.038 9.909-.038 14.845.113 1.62-.038 3.24 0 4.86-.15 2.035-1.808 2.524-.038.754 1.28-1.658.489-3.542.188-5.313.3z"/><path d="M226.054 250.87c-16.993-.904-33.91-2.9-50.903-4.029-13.488-1.016-27.052-1.242-40.54-2.484-1.32 0-.905-1.732.3-1.544 29.917 1.318 59.72 4.48 89.56 6.664h-.075c1.243 0 2.486.075 3.692-.075 1.017-1.13 2.298 1.016.829 1.355-.942.038-1.922.188-2.863.113zM60.95 354.48c-1.054-3.426-.451-7.417-.828-11.031v.113l-.226-3.728c-1.017-21.008-.15-42.016-.15-63.024.075-5.007.3-10.052.263-15.022-.64-6.4-1.809-12.763-2.411-19.2.414.037.829-.039 1.243-.114.188 0 .34-.038.527-.038 1.282 5.723 1.583 11.634 1.884 17.47.113 1.355.34 2.71.151 4.028v-.075c-.64 24.81-1.808 49.621.038 74.394.075.98.113 1.996.188 2.974l.113 1.544v-.113c.226 3.163.076 6.325.377 9.488.15.979.565 3.2-1.168 2.334z"/><path d="M44.599 304.859c-.038 0-.038 0-.038-.038l-.226-.79v.037c-.038-.264.038-.527.076-.79l.113-.453c.263-.075.339-.414.15-.602.716-2.824 1.244-5.685 1.884-8.509v-.037-.076c0-.075.038-.15.038-.225v-.038c0-.038 0-.075.037-.075v-.038c.038-.188.076-.377.114-.527v.075c0-.037 0-.075.037-.113v.038c.49-2.297 1.093-4.593 1.545-6.89 0 .038 0 .075-.038.113 1.168-5.384 2.073-10.843 3.165-16.264v.037c0-.037 0-.075.038-.113.038-.188.075-.376.113-.602 0-.038 0-.075.038-.113 0-.075.037-.113.037-.188 0-.038 0-.075.038-.113 0-.038.038-.113.038-.15.075-.34.15-.64.188-.98l.113-.451v.037c0-.037 0-.075.038-.075v-.038c1.921-8.17 4.257-16.226 6.254-24.396.189 0 .377-.076.565-.076.302 0 .566-.037.867-.075-.15.603-.301 1.167-.415 1.77-.98 5.12-2.524 10.127-3.692 15.21v-.038.038c0 .038 0 .075-.038.113 0 .037 0 .075-.037.113 0 .075-.038.15-.038.226-.038.113-.038.226-.075.376v.038c-.867 3.614-1.696 7.19-2.45 10.843 0 .037 0 .075-.037.113 0 .075-.038.15-.038.226v-.038c0 .038 0 .075-.037.113v-.038 0c0 .038 0 .075-.038.113v-.038c-.867 4.33-1.733 8.66-2.675 12.99 0-.038 0-.076.038-.114-1.13 5.12-2.45 10.203-3.504 15.324v-.076c-.377 1.092-.942 5.497-2.148 5.234z"/><path d="M54.772 306.816c-2.675-.037-5.313-.075-7.837-.941-.754-.15-1.545-.301-2.26-.565a15.589 15.589 0 00-.378-1.242v.038c-.037-.264.038-.528.076-.791v-.038c5.086 2.41 10.55 2.447 16.088 2.26 0 .3-.038.602-.038.903-1.883-.076-3.73.414-5.651.376zM160.495 308.925c-4.107-14.194-5.313-29.065-8.327-43.485-1.47-5.196-1.017-14.984-5.011-18.486-1.13-.527-.038-1.656.829-1.016-.038 0-.038 0-.076-.038.076.038.151.038.264.075 1.696.528 2.374 2.485 2.75 4.029v-.038c0 .038.038.076.038.113 0-.037 0-.075-.037-.113 3.315 17.394 6.179 34.863 9.494 52.257 0-.038 0-.075-.037-.113.565 2.033.904 4.142 1.733 6.062.49 1.054-1.168 1.807-1.62.753zM256.346 249.665H256.422c.226 0 .49 0 .715-.038h-.075c1.658-.075 3.278-.113 4.936-.113.226.452.414.942.565 1.393-8.327.189-16.653 0-24.98.038-2.374-.339-9.005.941-9.834-1.242-.113-.076-.038-.264.075-.264 9.344-.979 19.027.452 28.522.226z"/><path d="M277.898 310.544c.15.602.339 1.167.49 1.769-.453-.038-.942-.038-1.432-.038-2.186-7.567-4.484-15.135-6.48-22.777-3.693-13.215-5.276-27.032-10.174-39.946h1.658c3.127 7.568 4.446 15.662 6.18 23.644 1.205 4.668 1.808 9.487 3.277 14.08v-.037c.076.301.15.602.226.941 0 .038 0 .038.038.075 1.884 7.455 4.07 14.872 6.217 22.289z"/><path d="M207.44 309.113c-11.604.226-23.208.941-34.813 1.054-2.487-.264-13.564.565-13.64-1.995 17.37.979 35.154-.942 52.674-1.017 22.154.038 44.158 3.2 66.312 3.501.15.565.301 1.13.452 1.657-23.699.113-47.285-3.35-70.984-3.2z"/><path d="M262.412 341.867c-.301 6.25.038 12.613-1.394 18.75l-2.034.113c1.394-6.514.98-13.178 1.356-19.766.527-10.316.942-20.594 1.47-30.872.527.037 1.054.075 1.62.113.075 10.579-.415 21.12-1.018 31.662z"/><path d="M260.905 358.508c.189 0 .377 0 .528-.037a44.493 44.493 0 01-.415 2.183c-27.655 1.13-55.348-.564-83.003-1.77-21.024-.79-42.048-1.129-63.072-2.07a951.565 951.565 0 00-47.474-1.393c-11.34.113-23.85-1.845-34.475 2.523-.603.64-1.695-.302-1.13-1.055 2.223-2.936 13.564-3.388 17.482-3.802h-.075c40.051.339 80.027 3.426 120.116 3.84 30.518 1.13 61 3.125 91.518 1.581z"/><path d="M38.194 457.525c-2.336-3.463-1.432-7.68-1.093-11.558v.113c.113-3.69-.113-7.342-.15-11.031v.113c-.566-10.994-.302-22.025-.754-33.018V402.068v.038c-.302-3.953-.226-7.944-.377-11.935V390.096v.075c-.188-4.857-.49-9.713-.678-14.57V375.526v.037c-.15-2.259-.264-4.518-.678-6.776v.037c0-.037 0-.075-.038-.113v.038c-.377-1.732-.414-3.54-1.017-5.196v.038c-.264-1.694-1.545-2.861-1.96-4.405-.188-3.803 2.11-4.179 1.771 0 3.73 5.723 3.165 13.403 3.693 20.03v-.038V379.253c.376 6.89.603 13.78.829 20.707v-.038V399.96c.527 9.149.414 18.335.414 27.484v-.038V427.632c.113 1.355.113 2.71.188 4.104V431.773c.264 2.636.49 5.271.49 7.907v-.113c.189 3.313.076 6.626-.452 9.901-.64 2.636-.753 5.234.716 7.643.377.565-.603 1.017-.904.414zM237.168 458.391c-.678-.527-.527-1.619.226-1.995 1.13-1.958.377-4.48.453-6.626v.112c-.151-2.108-.264-4.179-.34-6.287v-.376-.113-.113.037c-.452-11.897-.376-23.794-.565-35.729v-.075.038a51.843 51.843 0 00-.188-2.41c-.075-1.13-.075-2.221-.113-3.35-.189-3.502 0-6.966-.226-10.467v.038c-.113-1.657-.113-3.313-.189-5.008v.038c-.188-2.07-.15-4.179-.188-6.25v.076c0-.151 0-.34-.038-.49v.075c-.15-5.76-1.544-11.595-.037-17.28.339-1.055.753-3.84 2.373-2.636.792 3.238-.753 6.928-.98 10.24v-.075c0 .076 0 .189-.037.264v-.038c-.339 24.02.867 48.04 1.545 72.098v-.038c.15 2.824.226 5.61.452 8.434 0 .15 0 .339.038.49v-.114c.037 1.808 1.055 8.96-2.186 7.53zM171.044 448.188c.076 3.276 0 6.551-.263 9.789-.377 0-.754-.075-1.055-.301h-.113c.829-12.16-.038-24.397.301-36.595.34-21.46.188-43.033-3.24-64.267.678.038 1.319.038 1.997.075 2.147 15.926 1.997 32.002 1.658 48.04.113 14.42.527 28.84.715 43.26z"/><path d="M42.866 458.391c-1.093 0-7.347-.301-4.785-2.221 5.5-.941 11.077-.339 16.615-.603h-.075c2.148-.075 4.333-.338 6.48-.376h-.037c4.86-.15 9.72-.49 14.581-.753h-.113c.678-.038 1.356-.038 2.035-.075h-.113c4.069-.226 8.138-.377 12.207-.49h-.113l3.052-.113h-.038c2.487-.075 4.974-.075 7.423-.15h-.038c23.059-1.243 46.08 1.694 69.063 2.447 1.13.263 2.826-.979 3.58.038.15.376-.038.753-.415.903-3.73 1.468-7.95.64-11.869.49-19.969-1.469-40.013-2.372-60.02-2.523h.038-.075.037c-1.733.075-3.428.188-5.162.226h.113a424.44 424.44 0 01-11.981.414h.113c-10.248.414-20.459 1.657-30.707 2.221h.113c-3.278 0-6.594.452-9.91.565z"/><path d="M239.429 455.831c-.075.565-.226 1.13-.301 1.694-9.344 1.958-18.764 1.506-28.259 1.205-10.85-.376-21.702-.301-32.515-1.205h.075c-1.884-.263-10.022 1.958-9.08-1.355.452-.979 1.658-.753 2.524-.79 5.878-.453 11.68.225 17.558.451 16.653.339 33.42 2.447 49.998 0zM193.312 402.407c-.076-14.118.15-28.576-1.583-42.506-.339-.866.34-2.033 1.357-1.656 2.147 1.732 1.017 5.195 1.318 7.643-.301 10.918.038 21.836-.263 32.754v-.037c-.151.527.263 5.27-.83 3.802zM216.22 407.565c-.905-4.141-1.357-8.358-1.96-12.537v.075c-.037-.452-.075-.941-.15-1.393v.075c-.113-.94-.189-1.882-.264-2.823v.113c0-.15-.038-.34-.038-.49v.113a6.152 6.152 0 01-.075-.828v-.038-.037-.038-.038c-.716-9.148-1.055-18.448.038-27.521v.075c.15-.715-.076-1.656.49-2.221.828-.377.828.79.79 1.318 0 .339-.037.677-.037 1.016v-.075c.075 9.186 1.168 18.373.49 27.597v-.113c-.15 3.84.226 7.68.64 11.483 0 .113.038.226.038.338-.226.603 1.545 7.68.038 5.949z"/><path d="M218.443 407.678c-3.203-.979-6.406-1.845-9.646-2.71-3.278-.754-6.518-1.206-9.871-1.318-.528-.038-1.055-.076-1.583-.038h.038-.15.112c-1.092.038-2.185-.301-3.278-.301h.113c-1.092.188-2.825-.678-1.13-1.469 3.73 0 7.573.527 11.266 1.055-.038 0-.038-.038-.076-.038 1.018.452 16.654 3.878 14.205 4.819zM150.284 353.727c-.98-5.309-.075-11.107-.339-16.566-.339-11.219-.565-22.476-1.017-33.733v.038c-.565-9.413-1.13-18.825-1.545-28.237-.188-2.07-.301-4.142-.414-6.175 0-.188-.038-.339-.038-.527v.038c-.075-.866-.075-1.77-.15-2.636-.039-1.92-1.131-22.137 1.958-19.954 1.206 5.76-.715 12.123-.452 18.11v-.038.113c-.226 3.05.038 6.1.113 9.149v-.038c.34 9.45.64 18.9 1.244 28.35v-.038c.414 7.266.753 14.57 1.055 21.836v-.037.075c.263 2.749.226 5.535.376 8.283v-.038 0c.566 7.003-.113 14.043.189 21.046v0c.226.715-.377 1.43-.98.979z"/></g></g></svg>