<svg width="73" height="49" viewBox="0 0 73 49" fill="none" xmlns="http://www.w3.org/2000/svg">
<path d="M24.3564 42.7705H18.2891V48.8524H24.3564V42.7705Z" fill="#EDAEEF"/>
<path d="M66.8448 6.42126V18.5851H60.7775V12.5032H54.7102V6.42958H60.7775V0.347656H54.7102V6.42126H48.6429V12.5281H24.3654V6.42126H18.2898V0.347656H12.2225V6.42958H18.2898V12.5032H12.2225V18.5851H6.15519V6.42126H0.0878906V24.667H12.2225V30.7573H18.2898V36.6894H24.3571V42.7713H30.4244V36.6894H42.5673V42.7713H48.6346V36.6894H54.7019V30.7573H60.7692V24.667H72.9204V6.42126H66.8448ZM24.3654 18.6101V24.667H18.2898V18.5851H24.3571L24.3654 18.6101ZM54.7102 24.667H48.6429V18.5851H54.7102V24.667Z" fill="#EDAEEF"/>
<path d="M54.7099 42.7705H48.6426V48.8524H54.7099V42.7705Z" fill="#EDAEEF"/>
</svg>
