<svg width="46" height="52" viewBox="0 0 46 52" fill="none" xmlns="http://www.w3.org/2000/svg">
<path d="M35.5806 47.913C37.5928 49.5563 35.0919 52.6184 33.0853 50.98C29.0094 47.6588 28.7813 47.5025 24.9335 50.5596C20.5464 53.0711 18.9904 51.6517 17.1506 49.1085C15.3778 46.6548 14.4786 46.8372 12.4347 49.0564C6.57045 55.4466 0 48.0116 0 41.451V22.5845C0 -7.52817 45.52 -7.52817 45.52 22.5845V41.5552C45.52 44.1596 41.5596 44.1596 41.5596 41.5552V22.5845C41.5596 -2.27716 3.96114 -2.27716 3.96114 22.5845V41.451C3.96114 43.9202 6.31628 49.8893 9.52406 46.3852C13.1522 42.4282 16.8436 42.236 20.0775 46.426C21.0815 47.7257 21.2843 48.3967 22.8537 47.1695C28.3074 42.8598 28.8482 42.4282 35.5806 47.913ZM37.8829 20.2456C37.8829 33.4548 23.286 33.4604 23.286 20.2456C23.286 7.03356 37.8829 7.03356 37.8829 20.2456ZM27.2471 20.2456C27.2471 28.1735 33.9225 28.1735 33.9225 20.2456C33.9225 12.3163 27.2471 12.3163 27.2471 20.2456ZM22.2298 20.2456C22.2298 33.4548 7.6315 33.4604 7.6315 20.2456C7.6315 7.03356 22.2298 7.03356 22.2298 20.2456ZM11.594 20.2456C11.594 28.1735 18.2687 28.1735 18.2687 20.2456C18.2687 12.3163 11.594 12.3163 11.594 20.2456ZM32.6952 33.6322C31.5877 37.2293 28.2293 39.8591 24.2787 39.8591H21.242C17.2921 39.8591 13.933 37.2293 12.8255 33.6322H32.6952Z" fill="white"/>
</svg>
