<svg width="369" height="391" viewBox="0 0 369 391" fill="none" xmlns="http://www.w3.org/2000/svg">
<path d="M13.76 48V11.712H0.944V0.911997H38.312V11.712H25.424V48H13.76ZM45.0974 48V0.911997H56.7614V18.696H74.4014V0.911997H86.0654V48H74.4014V29.496H56.7614V48H45.0974ZM95.7224 48V0.911997H130.498V11.712H107.386V19.416H126.322V28.776H107.386V37.2H130.498V48H95.7224ZM3.824 105V57.912H15.488V75.696H33.128V57.912H44.792V105H33.128V86.496H15.488V105H3.824ZM77.129 105.936C62.441 105.936 52.073 95.568 52.073 81.456C52.073 67.344 62.441 56.976 77.129 56.976C91.817 56.976 102.185 67.344 102.185 81.456C102.185 95.568 91.817 105.936 77.129 105.936ZM77.129 95.136C85.121 95.136 90.377 89.376 90.377 81.456C90.377 73.536 85.121 67.776 77.129 67.776C69.137 67.776 63.881 73.536 63.881 81.456C63.881 89.376 69.137 95.136 77.129 95.136ZM108.353 105V75.192C108.353 62.592 115.697 56.976 125.201 56.976C130.889 56.976 135.425 59.208 138.233 63.456C141.041 59.208 145.577 56.976 151.265 56.976C160.769 56.976 168.113 62.592 168.113 75.192V105H156.449V75.192C156.449 69.72 153.785 67.776 150.257 67.776C146.801 67.776 144.065 69.72 144.065 75.192V105H132.401V75.192C132.401 69.72 129.665 67.776 126.209 67.776C122.681 67.776 120.017 69.72 120.017 75.192V105H108.353ZM176.652 105V57.912H211.428V68.712H188.316V76.416H207.252V85.776H188.316V94.2H211.428V105H176.652ZM26.504 162.936C11.816 162.936 1.448 152.568 1.448 138.456C1.448 124.344 11.816 113.976 26.504 113.976C41.192 113.976 51.56 124.344 51.56 138.456C51.56 152.568 41.192 162.936 26.504 162.936ZM26.504 152.136C34.496 152.136 39.752 146.376 39.752 138.456C39.752 130.536 34.496 124.776 26.504 124.776C18.512 124.776 13.256 130.536 13.256 138.456C13.256 146.376 18.512 152.136 26.504 152.136ZM58.8084 162V114.912H93.0084V125.712H70.4724V133.056H88.8324V143.136H70.4724V162H58.8084ZM3.824 219V171.912H22.904C35.36 171.912 40.904 178.68 40.904 188.04C40.904 194.664 38.096 200.064 32.048 202.584L42.632 219H28.808L20.456 204.24H15.488V219H3.824ZM15.488 193.44H23.048C27.728 193.44 29.096 191.136 29.096 188.04C29.096 184.944 27.728 182.712 23.048 182.712H15.488V193.44ZM48.6834 219V171.912H83.4594V182.712H60.3474V190.416H79.2834V199.776H60.3474V208.2H83.4594V219H48.6834ZM101.51 219V182.712H88.694V171.912H126.062V182.712H113.174V219H101.51ZM132.847 219V171.912H151.927C164.383 171.912 169.927 178.68 169.927 188.04C169.927 194.664 167.119 200.064 161.071 202.584L171.655 219H157.831L149.479 204.24H144.511V219H132.847ZM144.511 193.44H152.071C156.751 193.44 158.119 191.136 158.119 188.04C158.119 184.944 156.751 182.712 152.071 182.712H144.511V193.44ZM200.106 219.936C185.418 219.936 175.05 209.568 175.05 195.456C175.05 181.344 185.418 170.976 200.106 170.976C214.794 170.976 225.162 181.344 225.162 195.456C225.162 209.568 214.794 219.936 200.106 219.936ZM200.106 209.136C208.098 209.136 213.354 203.376 213.354 195.456C213.354 187.536 208.098 181.776 200.106 181.776C192.114 181.776 186.858 187.536 186.858 195.456C186.858 203.376 192.114 209.136 200.106 209.136ZM26.504 276.936C11.816 276.936 1.448 266.568 1.448 252.456C1.448 238.344 11.816 227.976 26.504 227.976C38.24 227.976 47.312 234.6 50.408 244.536H37.592C35.36 240.936 31.472 238.776 26.504 238.776C18.512 238.776 13.256 244.536 13.256 252.456C13.256 260.376 18.512 266.136 26.504 266.136C32.408 266.136 36.584 263.76 38.744 259.152H23.624V249.792H51.488V254.904C50.336 267.72 40.328 276.936 26.504 276.936ZM57.1642 276V248.64C57.1642 235.824 64.4362 227.976 77.8282 227.976C91.2922 227.976 98.6362 235.824 98.6362 248.64V276H86.9722V262.608H68.5402V276H57.1642ZM68.5402 252.528H86.9722V248.64C86.9722 242.16 84.1642 238.776 77.7562 238.776C71.4202 238.776 68.5402 242.16 68.5402 248.64V252.528ZM106.103 276V246.192C106.103 233.592 113.447 227.976 122.951 227.976C128.639 227.976 133.175 230.208 135.983 234.456C138.791 230.208 143.327 227.976 149.015 227.976C158.519 227.976 165.863 233.592 165.863 246.192V276H154.199V246.192C154.199 240.72 151.535 238.776 148.007 238.776C144.551 238.776 141.815 240.72 141.815 246.192V276H130.151V246.192C130.151 240.72 127.415 238.776 123.959 238.776C120.431 238.776 117.767 240.72 117.767 246.192V276H106.103ZM174.402 276V228.912H209.178V239.712H186.066V247.416H205.002V256.776H186.066V265.2H209.178V276H174.402ZM232.485 276.936C221.973 276.936 214.989 271.248 214.773 262.104H226.149C226.149 265.056 227.949 266.928 232.485 266.928C237.021 266.928 238.821 265.056 238.821 262.104C238.821 259.008 235.221 258.288 230.901 257.496C224.205 256.272 215.637 254.688 215.637 243.24C215.637 234.312 222.405 227.976 232.557 227.976C242.421 227.976 249.117 233.952 249.477 242.88H238.533C238.461 240.144 236.733 237.984 232.701 237.984C228.525 237.984 226.869 240.36 226.869 242.808C226.869 245.904 230.469 246.624 234.861 247.416C241.629 248.64 250.197 250.224 250.197 261.672C250.197 271.032 243.141 276.936 232.485 276.936ZM2.672 333V305.64C2.672 292.824 9.944 284.976 23.336 284.976C36.8 284.976 44.144 292.824 44.144 305.64V333H32.48V319.608H14.048V333H2.672ZM14.048 309.528H32.48V305.64C32.48 299.16 29.672 295.776 23.264 295.776C16.928 295.776 14.048 299.16 14.048 305.64V309.528ZM51.6112 333V304.776C51.6112 292.608 58.8112 284.976 71.7712 284.976C84.7312 284.976 91.9312 292.608 91.9312 304.776V333H80.2672V304.776C80.2672 299.016 77.5312 295.776 71.7712 295.776C66.0112 295.776 63.2752 299.016 63.2752 304.776V333H51.6112ZM100.504 333V285.912H117.136C133.696 285.912 142.336 295.344 142.336 309.456C142.336 323.568 133.696 333 117.136 333H100.504ZM112.168 322.2H117.136C126.568 322.2 130.528 317.304 130.528 309.456C130.528 301.608 126.568 296.712 117.136 296.712H112.168V322.2ZM3.824 390V342.912H22.328C35.144 342.912 40.832 349.896 40.832 359.472C40.832 369.048 35.144 376.104 22.328 376.104H15.488V390H3.824ZM15.488 365.304H22.544C27.512 365.304 29.024 362.856 29.024 359.472C29.024 356.16 27.512 353.712 22.544 353.712H15.488V365.304ZM47.1365 390V342.912H66.2165C78.6725 342.912 84.2165 349.68 84.2165 359.04C84.2165 365.664 81.4085 371.064 75.3605 373.584L85.9445 390H72.1205L63.7685 375.24H58.8005V390H47.1365ZM58.8005 364.44H66.3605C71.0405 364.44 72.4085 362.136 72.4085 359.04C72.4085 355.944 71.0405 353.712 66.3605 353.712H58.8005V364.44ZM114.395 390.936C99.7066 390.936 89.3386 380.568 89.3386 366.456C89.3386 352.344 99.7066 341.976 114.395 341.976C129.083 341.976 139.451 352.344 139.451 366.456C139.451 380.568 129.083 390.936 114.395 390.936ZM114.395 380.136C122.387 380.136 127.643 374.376 127.643 366.456C127.643 358.536 122.387 352.776 114.395 352.776C106.403 352.776 101.147 358.536 101.147 366.456C101.147 374.376 106.403 380.136 114.395 380.136ZM146.699 390V342.912H163.331C179.891 342.912 188.531 352.344 188.531 366.456C188.531 380.568 179.891 390 163.331 390H146.699ZM158.363 379.2H163.331C172.763 379.2 176.723 374.304 176.723 366.456C176.723 358.608 172.763 353.712 163.331 353.712H158.363V379.2ZM214.857 390.936C201.897 390.936 194.697 383.304 194.697 371.136V342.912H206.361V371.136C206.361 376.896 209.025 380.136 214.785 380.136C220.689 380.136 223.353 376.968 223.353 371.136V342.912H234.729V371.136C234.729 383.232 227.601 390.936 214.857 390.936ZM265.918 390.936C251.23 390.936 240.862 380.568 240.862 366.456C240.862 352.344 251.23 341.976 265.918 341.976C278.518 341.976 288.022 349.608 290.398 360.768H278.086C276.214 355.944 271.822 352.776 265.918 352.776C257.926 352.776 252.67 358.536 252.67 366.456C252.67 374.376 257.926 380.136 265.918 380.136C271.822 380.136 276.214 376.968 278.086 372.144H290.398C288.022 383.304 278.518 390.936 265.918 390.936ZM305.065 390V353.712H292.249V342.912H329.617V353.712H316.729V390H305.065ZM350.399 390.936C339.887 390.936 332.903 385.248 332.687 376.104H344.063C344.063 379.056 345.863 380.928 350.399 380.928C354.935 380.928 356.735 379.056 356.735 376.104C356.735 373.008 353.135 372.288 348.815 371.496C342.119 370.272 333.551 368.688 333.551 357.24C333.551 348.312 340.319 341.976 350.471 341.976C360.335 341.976 367.031 347.952 367.391 356.88H356.447C356.375 354.144 354.647 351.984 350.615 351.984C346.439 351.984 344.783 354.36 344.783 356.808C344.783 359.904 348.383 360.624 352.775 361.416C359.543 362.64 368.111 364.224 368.111 375.672C368.111 385.032 361.055 390.936 350.399 390.936Z" fill="white"/>
</svg>
