<svg width="83" height="104" viewBox="0 0 83 104" fill="none" xmlns="http://www.w3.org/2000/svg">
<path d="M29.3564 59.771H23.2891V65.8529H29.3564V59.771Z" fill="#EDAEEF"/>
<path d="M71.8448 23.4208V35.5846H65.7775V29.5027H59.7102V23.4291H65.7775V17.3472H59.7102V23.4208H53.6429V29.5276H29.3654V23.4208H23.2898V17.3472H17.2225V23.4291H23.2898V29.5027H17.2225V35.5846H11.1552V23.4208H5.08789V41.6665H17.2225V47.7568H23.2898V53.6889H29.3571V59.7708H35.4244V53.6889H47.5673V59.7708H53.6346V53.6889H59.7019V47.7568H65.7692V41.6665H77.9204V23.4208H71.8448ZM29.3654 35.6096V41.6665H23.2898V35.5846H29.3571L29.3654 35.6096ZM59.7102 41.6665H53.6429V35.5846H59.7102V41.6665Z" fill="#EDAEEF"/>
<path d="M59.7099 59.771H53.6426V65.8529H59.7099V59.771Z" fill="#EDAEEF"/>
</svg>
