<svg width="60" height="58" fill="none" xmlns="http://www.w3.org/2000/svg"><path d="M50.2 10.5c0-.6-.2-1.2-.7-1.6C44.4 3.8 37.2.6 29.4.6 13.7.6.9 13.4.9 29.1s12.8 28.5 28.5 28.5c7.9 0 15-3.2 20.1-8.3.4-.4.7-1 .7-1.6 0-.6-.2-1.2-.7-1.6L32.7 29l16.9-16.9c.4-.4.6-1 .6-1.6ZM27.8 27.4c-.4.4-.7 1-.7 1.6 0 .6.2 1.2.7 1.6l16.8 16.8c-4.1 3.4-9.4 5.4-15.2 5.4-13.2 0-23.8-10.7-23.9-23.9C5.5 15.7 16.2 5.1 29.4 5c5.8 0 11 2 15.2 5.4l-16.8 17Zm-3.2-12.5c-2.1 0-3.8 1.7-3.8 3.8 0 2.1 1.7 3.8 3.8 3.8 2.1 0 3.8-1.7 3.8-3.8 0-2.1-1.7-3.8-3.8-3.8ZM40.1 29c0 2.1 1.7 3.8 3.8 3.8 2.1 0 3.8-1.7 3.8-3.8 0-2.1-1.7-3.8-3.8-3.8-2.1 0-3.8 1.7-3.8 3.8Zm15.2-3.8c-2.1 0-3.8 1.7-3.8 3.8 0 2.1 1.7 3.8 3.8 3.8 2.1 0 3.8-1.7 3.8-3.8 0-2.1-1.7-3.8-3.8-3.8Z" fill="#fff"/></svg>