<?xml version="1.0" encoding="UTF-8" standalone="no"?>
<!-- Created with Inkscape (http://www.inkscape.org/) -->

<svg
 xmlns:dc="http://purl.org/dc/elements/1.1/"
 xmlns:cc="http://creativecommons.org/ns#"
 xmlns:rdf="http://www.w3.org/1999/02/22-rdf-syntax-ns#"
 xmlns:svg="http://www.w3.org/2000/svg"
 xmlns="http://www.w3.org/2000/svg"
 version="1.1"
 width="500"
 height="150"
 xml:space="preserve">
 
 <path id="contour-bleu"
 d="m 182.33997,16.205555 c -9.59914,0.002 -18.26629,3.92774 -24.58037,10.24182 -6.31407,6.31665 -10.24181,15.04267 -10.24181,24.64438 0.002,9.59915 3.92517,18.3303 10.24181,24.64438 6.31152,6.31408 15.04268,10.17781 24.64438,10.17781 9.9909,0 18.64011,-3.42845 24.77241,-10.11379 1.19317,-1.30328 2.27624,-2.68337 3.26458,-4.22475 0.98834,-1.54396 1.86401,-3.22618 2.62446,-4.99289 l 0.64012,-1.47227 -1.47226,-0.64011 -27.90896,-11.97013 26.88477,-18.30725 1.28024,-0.89616 -0.83216,-1.28023 c -2.68335,-4.10953 -6.20397,-7.57126 -10.24181,-10.17781 -0.77838,-0.50441 -1.60797,-0.96529 -2.43244,-1.40825 -5.0569,-2.72432 -10.7283,-4.22475 -16.57895,-4.22475 l -0.064,0 z m 82.25462,3.58464 -6.52915,61.96302 -0.19194,1.60028 1.6643,0.12802 c 10.07539,0.70668 19.87169,1.56444 29.70128,2.56045 10.03443,1.01394 20.22248,2.20712 30.66146,3.52063 l 1.60028,0.19193 0.12802,-1.60028 6.27312,-60.42674 -34.63017,29.25319 -28.67709,-37.1906 z m -154.58747,9.08961 -0.96017,2.8165 -22.532008,66.12376 -0.89616,2.496445 2.62447,-0.448085 c 14.850638,-2.64239 30.359308,-5.10298 46.280228,-7.23328 2.77552,-0.37127 5.92744,-0.78094 9.40967,-1.21622 3.25177,-0.40711 6.39858,-0.7963 9.47368,-1.1522 l 0.064,0 2.68848,-0.32006 -1.6643,-2.17639 -42.69559,-56.52205 -1.79232,-2.36842 z m 262.83072,5.0569 -1.92035,2.24039 -46.40824,54.34568 -1.79232,2.11237 2.75249,0.44808 c 16.34595,2.72944 32.29758,5.95305 47.56045,9.473685 3.0623,0.70668 6.01707,1.42874 8.83357,2.11238 2.72177,0.65803 5.55107,1.3468 8.57753,2.11237 0.004,0 0.0639,0 0.0639,0 l 2.62446,0.70413 -0.70412,-2.62447 -18.75533,-68.044095 -0.83215,-2.88052 z m -305.334278,2.8165 c -2.63979,-0.0326 -5.49667,0.22533 -8.51352,0.83215 -0.3303,0.0639 -0.65035,0.18681 -0.96017,0.25604 -7.98094,1.66942 -15.68535,3.34909 -23.04409,5.0569 -1.64894,0.38151 -3.02646,0.73997 -4.22476,1.02419 -1.62845,0.38406 -3.05974,0.67851 -4.22475,0.96017 l -1.53627,0.38407 0.32006,1.53627 13.31436,61.130865 0.32006,1.53628 1.53627,-0.32005 c 6.72632,-1.49531 13.87767,-3.01879 21.44382,-4.54481 1.63357,-0.33031 3.07766,-0.58123 4.35277,-0.83216 1.63869,-0.32517 3.134,-0.64779 4.41678,-0.89615 l 1.53628,-0.32006 -0.32006,-1.53627 -4.09673,-20.355625 6.27312,-1.6643 c 7.61479,-2.00228 13.17611,-8.77468 14.97866,-15.93883 0.35591,-1.40569 0.58635,-2.83187 0.64011,-4.22475 0.0564,-1.41081 -0.0487,-2.80114 -0.32005,-4.16074 -0.0409,-0.20484 -0.0896,-0.39687 -0.12803,-0.5761 -1.5081,-6.82362 -5.05433,-11.75505 -10.30582,-14.5946 -3.22618,-1.7443 -7.0584,-2.69823 -11.45804,-2.75249 z m 156.187758,6.01708 0,14.91464 25.34851,0 0,-14.91464 -23.74822,0 -1.60029,0 z m 188.9616,0.57609 -16.70697,61.899015 -0.44809,1.60027 1.6003,0.32006 c 13.39885,3.01109 26.16017,6.19118 37.95874,9.40968 2.4862,0.67852 4.70356,1.35192 6.7212,1.92033 2.39402,0.67598 4.58065,1.29049 6.52916,1.85633 l 1.47226,0.44809 0.44808,-1.53627 17.73115,-60.938835 0.38407,-1.47226 -1.47227,-0.44808 c -4.73684,-1.39545 -11.79857,-3.44893 -16.70696,-4.86487 -1.0037,-0.28933 -1.91523,-0.59402 -2.75249,-0.83215 -0.61451,-0.17411 -1.32888,-0.40199 -2.17639,-0.64011 l -1.53628,-0.38407 -0.44808,1.47226 -9.53769,34.18207 -21.05974,-41.99146 z"
 style="fill:#231f20;fill-opacity:1;fill-rule:nonzero;stroke:none" />
 
 <path id="bleu"
 d="m 182.40398,17.805835 c -18.33542,0 -33.28591,14.95051 -33.28591,33.28592 0,18.33286 14.95049,33.28592 33.28591,33.28592 13.26316,0 24.05292,-6.34225 29.2532,-18.43527 l -30.59743,-13.12234 29.2532,-19.97155 c -6.11181,-9.36359 -16.72745,-15.04268 -27.90897,-15.04268 z m 83.40683,6.14509 -6.20911,57.9303 c 19.83073,1.39033 39.5232,3.43869 60.49077,6.08108 l 6.01706,-56.58605 -33.09388,27.90896 -27.20484,-35.33429 z m -155.29161,8.25747 -22.531998,66.12375 c 20.578378,-3.66144 42.521478,-6.97211 65.291598,-9.6017 l -42.7596,-56.52205 z m 261.61451,4.99289 -46.40824,54.34566 c 22.75476,3.79715 44.74651,8.528875 65.16358,13.698445 L 372.13371,37.201285 z m -305.270268,1.1522 c -2.62029,0.0205 -5.49666,0.35734 -8.51351,1.02419 -11.05605,2.31209 -21.58208,4.65747 -31.4936,7.04125 4.43215,20.39146 8.87966,40.80342 13.31437,61.194875 9.60683,-2.14054 19.69758,-4.24267 30.21337,-6.27311 -1.46202,-7.274255 -2.8882,-14.553625 -4.35278,-21.827885 2.73457,-0.71948 4.94424,-1.32887 7.68137,-2.04836 9.76814,-2.56813 15.91579,-13.67027 14.14651,-22.46799 -2.1823,-10.85122 -9.64111,-16.72832 -20.99573,-16.64297 z m 158.428168,6.01708 0,11.77809 22.14794,0 0,-11.77809 -22.14794,0 z m 187.80939,3.45661 -15.61878,57.802275 c 18.73229,4.21195 36.03072,8.74139 51.27312,13.18634 l 17.66713,-60.938825 c -6.29615,-1.85377 -17.34195,-5.07226 -21.63584,-6.27312 l -10.6899,38.08677 -20.99573,-41.86344 z"
 style="fill:#80d1da;fill-opacity:1;fill-rule:evenodd;stroke:none" />
 
 <path id="contour-rouge"
 d="m 274.58037,18.189915 -7.74537,74.63726 -0.12803,1.60029 1.60029,0.12801 c 9.80398,0.87056 19.63356,1.83585 29.31721,2.94453 9.95505,1.1394 19.99715,2.48364 30.08534,4.096725 l 1.6643,0.25605 1.72831,0.25604 c 17.83101,3.0828 35.2293,6.76473 51.91323,10.75392 3.32603,0.79374 6.57013,1.5926 9.66571,2.36842 3.38237,0.84752 6.49332,1.66942 9.40969,2.43244 l 0.0639,0 2.11237,0.51209 -0.0639,0.064 1.53627,0.44809 c 13.04552,3.40283 25.39715,6.89786 36.80654,10.43384 1.93058,0.59915 4.11465,1.33912 6.52917,2.11238 2.15077,0.6862 4.2862,1.3724 6.33712,2.04836 l 1.53627,0.51209 0.44808,-1.60028 17.21907,-60.170695 0.38406,-1.47226 -1.40825,-0.44808 c -4.23499,-1.40825 -11.0458,-3.61537 -16.25889,-5.31295 -0.41479,-0.1356 -1.40313,-0.48136 -2.68848,-0.89615 -1.40313,-0.4532 -2.10213,-0.70157 -2.11237,-0.70413 l -1.53627,-0.44808 -0.44809,1.53627 -7.42531,24.58037 -20.67568,-42.63157 -17.85918,70.540525 -0.12802,0.5121 -0.38407,-1.53627 -20.48364,-77.005695 -0.83215,-2.94452 -1.92034,2.36842 -50.69701,61.38691 -0.57611,0.768135 0,-0.12803 7.48934,-71.052615 -33.734,30.59744 -28.74111,-41.54339 z m -85.58322,6.59317 c -9.30469,0.0615 -17.41621,3.86884 -23.23612,9.98576 -5.79943,6.09645 -9.36103,14.47682 -9.47368,23.74823 -0.002,0.14851 0,0.28933 0,0.44808 0,13.50384 7.63783,25.08478 18.88335,30.66145 2.20455,1.09332 4.52688,1.95875 6.97724,2.56045 2.46059,0.60427 5.0569,0.97554 7.68137,1.02419 0.14093,0.006 0.27397,0 0.44808,0 9.69132,0.0665 18.34566,-2.73201 24.51635,-8.83357 1.20854,-1.19317 2.37354,-2.55278 3.39261,-4.03271 1.00881,-1.46459 1.85121,-3.00855 2.62447,-4.73685 0.13314,-0.29958 0.17677,-0.41223 0.19193,-0.44808 l 0.5761,-1.34424 -1.28023,-0.64011 -25.54054,-14.0185 21.76386,-12.93029 1.40826,-0.83216 -0.89616,-1.34423 c -4.39887,-6.7724 -10.51323,-13.54481 -17.79516,-16.96302 -1.47226,-0.69132 -2.93429,-1.20853 -4.4808,-1.60028 -1.56956,-0.39943 -3.22105,-0.65548 -4.86487,-0.70412 -0.13581,-0.006 -0.27141,0 -0.44808,0 l -0.44807,0 z m -69.90042,4.80084 -0.96017,2.88052 -24.644388,73.805125 -0.89615,2.56046 2.62447,-0.5121 c 16.171828,-3.02645 33.173248,-5.82759 50.697008,-8.321485 3.58463,-0.50952 6.98492,-0.97553 10.24182,-1.40825 3.13144,-0.41479 6.62646,-0.87311 10.43385,-1.34423 l 2.68849,-0.32007 -1.6003,-2.17637 -46.79232,-62.73116 -1.79231,-2.43244 z m -42.119488,10.94595 c -1.79568,0.0846 -3.67874,0.33286 -5.633,0.70413 -0.5377,0.1 -1.09076,0.18947 -1.6643,0.32006 -8.08335,1.73342 -15.79032,3.48733 -23.17212,5.24893 -0.77325,0.18436 -2.30441,0.59146 -4.35277,1.08819 -1.65149,0.40199 -3.00341,0.73741 -4.16074,1.02419 l -0.0639,0 -1.47226,0.32005 0.32006,1.53628 13.37837,65.227585 0.32006,1.60029 1.60028,-0.38407 c 7.00541,-1.60285 14.19773,-3.15192 21.57184,-4.67283 0.72973,-0.15117 2.17127,-0.45576 4.35277,-0.89616 1.64125,-0.33287 3.10584,-0.63755 4.41679,-0.89615 l 1.53627,-0.25605 -0.25605,-1.53627 -4.16073,-21.891895 6.33712,-1.6643 c 7.66344,-2.07908 13.29644,-9.24324 15.106688,-16.835 0.35334,-1.48249 0.51977,-3.00085 0.5761,-4.48079 0.0563,-1.47738 -0.0461,-2.97268 -0.32006,-4.41678 -0.0717,-0.38663 -0.16387,-0.81167 -0.25604,-1.21622 -1.574678,-6.93628 -5.064588,-11.94453 -10.177808,-14.91465 -3.79267,-2.20262 -8.43943,-3.26261 -13.82646,-3.00854 z m 155.099578,10.94595 0,15.87483 26.05263,0 0,-15.87483 -24.45235,0 -1.60028,0 z"
 style="fill:#231f20;fill-opacity:1;fill-rule:nonzero;stroke:none" />
 
 <path id="rouge"
 d="m 275.66856,22.670705 -7.23328,70.34851 c 19.27511,1.71293 39.20569,3.72801 59.53058,6.97723 l 7.10526,-66.89189 -32.06969,28.99716 -27.33287,-39.43101 z m -86.22333,3.71266 c -18.08705,-0.1229 -31.5576,14.49474 -31.5576,32.58179 0,18.08706 14.30014,32.52034 32.38976,32.64581 13.08392,0.0897 24.18605,-5.19773 29.31721,-17.09105 l -27.97298,-15.29871 24.06828,-14.33855 c -6.02987,-9.27653 -15.21166,-18.42248 -26.24467,-18.49929 z m -69.83641,6.59317 -24.644378,73.805125 c 22.526888,-4.2145 46.513228,-8.057755 71.436698,-11.137985 l -46.79232,-62.66714 z m 262.44666,6.14509 -50.69701,61.450925 c 24.84665,4.29644 48.88421,9.70413 71.18065,15.55476 L 382.05548,39.121625 z m -303.477948,2.94453 c -2.63863,0.002 -5.47555,0.33478 -8.51352,1.02418 -11.13542,2.3889 -21.76899,4.88791 -31.74964,7.36131 4.46543,21.75619 8.91294,43.4714 13.37838,65.227595 9.6734,-2.21223 19.88193,-4.37326 30.46941,-6.46515 -1.47225,-7.75818 -2.94196,-15.477955 -4.41678,-23.236125 2.75761,-0.74766 4.99033,-1.36729 7.74537,-2.11238 9.83983,-2.67056 15.992608,-14.55107 14.21053,-23.94026 -2.19896,-11.57518 -9.68974,-17.87078 -21.12375,-17.85917 z m 344.445228,8.83357 -16.89901,66.251775 c 18.17668,4.73684 35.01167,9.72717 49.80086,14.59459 l 17.15505,-60.170685 c -6.10924,-2.033 -16.82732,-5.52547 -20.99573,-6.84922 l -8.64153,28.48506 -20.41964,-42.31152 z m -189.34566,2.17638 0,12.67425 22.91607,0 0,-12.67425 -22.91607,0 z"
 style="fill:#ee2327;fill-opacity:1;fill-rule:evenodd;stroke:none" />
 
 <path id="contour-jaune"
 d="m 269.33144,18.830025 -6.91323,68.17211 -0.32006,2.7525 2.75249,0.19193 c 9.92688,0.75277 19.51836,1.64892 28.99716,2.68847 9.78862,1.06771 19.6643,2.26857 29.8293,3.64865 l 2.8165,0.38407 3.58464,0.57611 c 3.44381,0.57609 6.59317,1.14708 9.47368,1.66429 2.83442,0.50953 5.93002,1.07027 9.34567,1.728295 15.96187,3.08024 31.42446,6.59318 46.08819,10.30584 l 3.9687,0.96017 2.62447,0.70414 c 1.94595,0.50696 4.44495,1.22132 7.48933,2.04836 2.78578,0.75534 5.23614,1.38777 7.36131,1.98435 12.3926,3.48478 24.035,7.10271 34.69417,10.62589 l 2.68848,0.89616 0.76813,-2.75249 17.15505,-60.362735 0.70413,-2.49644 -2.43244,-0.83215 c -0.0122,-0.006 0.0539,0.0359 -0.0639,0 -4.50129,-1.50299 -0.58379,-0.23813 -2.7525,-0.96017 -1.00625,-0.33287 -2.10725,-0.6606 -3.20056,-1.02418 -5.63044,-1.86402 -12.03158,-3.97127 -15.04267,-4.92888 l -2.68848,-0.89616 -0.70413,2.75249 -8.4495,30.72547 -20.35562,-42.37554 -17.15505,64.267425 -0.38407,1.6643 -0.96017,-3.32859 -18.75534,-68.108115 -1.34423,-4.86486 -3.3286,3.84067 -46.40824,54.34566 -1.72831,2.04837 0.064,-0.96017 6.65719,-67.01992 -35.33428,32.45378 -28.74111,-40.5191 z m -83.47084,1.08819 c -9.90896,0 -18.8936,4.04551 -25.41252,10.56188 -6.51892,6.52148 -10.55931,15.49843 -10.56187,25.41251 0.002,9.91153 4.04295,18.95761 10.56187,25.47653 6.52148,6.52149 15.56245,10.56189 25.47653,10.56189 10.33144,0 19.99204,-4.50385 26.69274,-11.90612 1.28024,-1.41337 2.43756,-2.99062 3.52063,-4.67283 1.06772,-1.65662 2.03045,-3.43101 2.8165,-5.24894 l 1.02418,-2.49645 -2.43243,-1.02417 -25.92461,-11.13798 23.68422,-15.49075 2.3044,-1.47227 -1.47226,-2.2404 c -2.77297,-4.24523 -6.39345,-7.80427 -10.56188,-10.49786 -0.80654,-0.51977 -1.64893,-1.01395 -2.49644,-1.47227 -5.21821,-2.81138 -11.1175,-4.35277 -17.15505,-4.35277 l -0.0639,0 z m -71.4367,10.11379 -1.60028,4.86487 -22.532008,66.059745 -1.47226,4.35277 4.48079,-0.83215 c 14.886488,-2.6475 30.369558,-5.046655 46.216218,-7.169265 2.51693,-0.33798 5.6074,-0.75022 9.34566,-1.21622 3.32603,-0.41479 6.54453,-0.80654 9.5377,-1.1522 l 4.73684,-0.57611 -2.88051,-3.77667 -42.7596,-56.45804 -3.07255,-4.09673 z m -40.711238,9.08962 c -2.73659,-0.0391 -5.65189,0.26918 -8.76956,0.89616 -0.002,0.002 -0.33798,0.0539 -0.96017,0.19193 -8.01422,1.67454 -15.69047,3.41565 -23.0441,5.12091 -1.84609,0.4276 -3.26202,0.71694 -4.28876,0.96017 -1.83329,0.43528 -3.26714,0.79374 -4.22475,1.02419 l -2.62447,0.64011 0.57611,2.56046 13.31436,61.194875 0.57611,2.62446 2.62446,-0.5761 c 6.59317,-1.46714 13.75477,-2.99573 21.44381,-4.54481 1.75136,-0.35334 3.23898,-0.61194 4.35278,-0.83213 1.77695,-0.3508 3.27482,-0.68878 4.35277,-0.89617 l 2.68849,-0.51208 -0.5121,-2.62447 -3.9047,-19.331445 5.24894,-1.40826 c 8.03215,-2.11237 13.91608,-9.18434 15.81081,-16.70696 0.37895,-1.49019 0.58123,-3.01621 0.64011,-4.4808 0.0615,-1.4953 -0.0307,-2.96245 -0.32005,-4.41678 l -0.064,-0.0639 c -0.0256,-0.12536 -0.008,-0.31494 -0.064,-0.5761 l -0.0639,0 c -1.58238,-7.15904 -5.27199,-12.367 -10.81794,-15.36273 -3.37341,-1.82433 -7.40913,-2.81538 -11.97012,-2.88052 z m 153.755328,8.12945 0,15.55477 25.73259,0 0,-15.55477 -22.98009,0 -2.7525,0 z"
 style="fill:#231f20;fill-opacity:1;fill-rule:nonzero;stroke:none" />
 
 <path id="jaune"
 d="m 185.92461,22.606695 c -18.33542,0 -33.28592,14.95049 -33.28592,33.28591 0,18.33287 14.9505,33.28592 33.28592,33.28592 13.26316,0 25.33315,-8.0091 30.53343,-20.09957 l -30.53343,-13.18635 27.90896,-18.17923 c -6.10924,-9.36359 -16.72745,-15.10668 -27.90896,-15.10668 z m 85.19915,3.58464 -6.01707,61.06685 c 19.34936,1.46714 38.499,3.62049 58.95448,6.40114 l 5.88905,-59.6586 -32.32575,29.38121 -26.50071,-37.1906 z m -155.73969,9.53769 -22.532008,66.123755 c 20.578378,-3.658885 42.457478,-6.972125 65.227598,-9.601705 l -42.69559,-56.52205 z m 261.5505,4.54481 -46.40826,54.28164 c 22.75222,3.79717 44.74652,8.590325 65.1636,13.762455 L 376.93457,40.273835 z m -303.926038,1.60028 c -2.62028,0.0184 -5.43265,0.35783 -8.4495,1.02418 -11.05604,2.31209 -21.58463,4.65491 -31.4936,7.04125 4.43471,20.39148 8.81821,40.80342 13.25036,61.194875 9.60683,-2.13797 19.69758,-4.24011 30.21337,-6.27311 -1.46202,-7.271685 -2.89075,-14.556185 -4.35277,-21.827875 2.73712,-0.71949 4.9468,-1.32888 7.68136,-2.04836 9.7707,-2.56558 15.91579,-13.66772 14.14652,-22.468 -2.18231,-10.84912 -9.64111,-16.727 -20.99574,-16.64296 z m 157.211958,8.06543 0,10.17781 20.2916,0 0,-10.17781 -20.2916,0 z m 187.16927,2.7525 -15.1707,57.290185 c 18.17667,4.75731 35.01423,9.83471 49.80085,14.72262 l 17.15506,-60.426745 c -6.10925,-2.03813 -16.82987,-5.58436 -20.99574,-6.91323 l -10.36984,37.7027 -20.41963,-42.37553 z"
 style="fill:#f9c328;fill-opacity:1;fill-rule:evenodd;stroke:none" />
 
 <path id="interne"
 d="m 66.928232,59.008705 c 2.40425,0 4.36302,1.96131 4.36302,4.36557 0,2.40428 -1.95877,4.36558 -4.36302,4.36558 -2.40685,0 -4.36559,-1.9613 -4.36559,-4.36558 0,-2.40426 1.95874,-4.36557 4.36559,-4.36557 z m 20.033,-3.00854 c 0.24581,0.81935 0.45576,1.65406 0.62473,2.49645 1.7693,8.26515 -2.77296,15.08108 -15.7519,17.9155 -2.73456,0.71949 -5.38463,1.25718 -8.12176,1.97667 1.46202,7.2717 2.87283,14.25662 4.33741,21.53088 -6.50868,1.257185 -12.61536,2.624455 -18.66572,3.930285 l 0.45064,2.43755 c 6.96186,-1.52858 14.17212,-3.03413 21.60256,-4.50382 -1.45436,-7.230745 -2.93174,-14.561315 -4.3835,-21.792045 2.73713,-0.71949 5.3872,-1.25463 8.12433,-1.97411 11.77297,-2.97013 16.71721,-11.25576 14.94794,-19.52091 -0.20996,-1.04467 -0.47624,-2.06373 -0.79374,-3.05206 l -2.37099,0.55561 z m 46.111238,35.36501 c 5.90954,-0.82702 11.89844,-1.61308 17.94878,-2.35306 l -1.79743,-2.3761 -11.44267,-15.12205 -3.26202,0.48137 11.3505,15.0017 c -4.36814,0.55819 -9.02561,1.24439 -13.31949,1.84609 l 0.52233,2.52205 z m 54.54026,-30.62305 23.72772,9.51722 0.18947,0.0768 -0.0844,0.18701 -0.002,0.004 0,0 0,0 c -0.33798,0.73742 -0.71436,1.45435 -1.12404,2.15079 -0.41226,0.699 -0.85521,1.37496 -1.32377,2.0202 -2.4401,3.33883 -5.71236,6.06572 -9.48135,7.95789 l -0.14093,0.0717 -0.0998,-0.12802 -1.51835,-1.96643 -0.14851,-0.19192 0.2202,-0.10243 0.008,-0.002 0,0 c 0.60939,-0.27909 1.20598,-0.57867 1.78976,-0.90129 0.5761,-0.32005 1.14196,-0.66059 1.69502,-1.02418 2.74993,-1.81024 5.06971,-4.11721 6.70839,-6.78008 l -20.54765,-7.89388 -0.12557,-0.0487 0,-0.13314 -0.008,-2.63215 -0.002,-0.28933 0.26885,0.10754 z m 114.66741,26.05008 c 5.59714,0.65804 11.25576,1.36985 17.00909,2.13029 0.62476,-6.32176 1.25207,-12.64608 1.87938,-18.97041 l -2.74224,-0.39942 -1.62846,16.4202 c -4.63442,-0.60427 -9.72461,-1.21366 -14.26429,-1.74624 l -0.25348,2.56558 z m 69.0811,11.66543 c 6.08362,1.34936 12.06742,2.749935 17.93084,4.186355 -1.91008,-6.938835 -3.82532,-13.877675 -5.74054,-20.816505 l -2.74481,-0.57867 4.94424,17.93855 c -4.54992,-1.09331 -9.16899,-2.16358 -13.8495,-3.20569 l -0.54025,2.47596 z m 59.2438,15.416515 c 6.24237,1.86656 12.23897,3.74338 17.95136,5.59971 l 6.21679,-21.879095 -2.81138,-0.80654 -5.43331,19.433845 c -4.90327,-1.5798 -10.00368,-3.16985 -15.28592,-4.75221 l -0.63756,2.40428 z M 368.72907,74.000165 c 2.40428,0 4.36557,1.96132 4.36557,4.36558 0,2.40426 -1.96131,4.36558 -4.36557,4.36558 -2.40425,0 -4.36302,-1.96132 -4.36302,-4.36558 0,-2.40426 1.95877,-4.36558 4.36302,-4.36558 z m -246.90982,-4.8495 c 2.40429,0 4.36558,1.95875 4.36558,4.36558 0,2.40426 -1.96131,4.36302 -4.36558,4.36302 -2.40426,0 -4.36558,-1.95876 -4.36558,-4.36302 0,-2.40683 1.96134,-4.36558 4.36558,-4.36558"
 style="fill:#231f20;fill-opacity:1;fill-rule:evenodd;stroke:none" />
 
</svg>
